<svg width="76" height="85" viewBox="0 0 76 85" fill="none" xmlns="http://www.w3.org/2000/svg">
  <path d="M62.6823 42.3304C62.6823 56.4078 51.1808 67.8197 36.993 67.8197C22.8052 67.8197 11.3037 56.4078 11.3037 42.3304C11.3037 30.8615 28.3548 9.9836 34.6738 2.64022C35.4388 1.75117 35.8213 1.30664 36.3183 1.12855C36.7404 0.977298 37.2456 0.977298 37.6677 1.12855C38.1647 1.30664 38.5472 1.75117 39.3122 2.64022C45.6312 9.9836 62.6823 30.8615 62.6823 42.3304Z" fill="url(#paint0_radial_fav)"/>
  <path d="M62.0895 69.3203C62.1879 69.1847 62.3023 69.253 62.4059 69.2803C64.6657 69.8741 66.9465 70.4015 69.0778 71.4004C70.0905 71.875 71.052 72.4342 71.861 73.2129C73.0723 74.3789 73.2898 75.73 72.4684 76.9219C72.2528 77.2348 71.9701 77.5019 71.6872 77.8164C69.7742 79.4458 67.5042 80.2845 65.2136 81.0557C62.5048 81.9676 59.7189 82.599 56.902 83.0664C53.7306 83.5926 50.5414 83.9773 47.3347 84.248C42.3621 84.6678 37.384 84.7361 32.4011 84.6426C28.6655 84.5724 24.9394 84.3243 21.2311 83.8642C15.9774 83.2124 10.7801 82.2877 5.80731 80.3926C4.22879 79.791 2.70906 79.0565 1.39715 77.958C1.10109 77.7101 0.836065 77.4355 0.613949 77.1201C-0.273094 75.8603 -0.200057 74.6641 0.845394 73.5166C2.19661 72.0337 3.98985 71.2926 5.80828 70.6123C7.17265 70.1019 8.58592 69.745 9.99969 69.3975C10.1796 69.3532 10.3607 69.2519 10.5944 69.3877C10.3787 69.6199 10.0848 69.6368 9.83368 69.7246C8.52761 70.1813 7.25024 70.6946 6.10907 71.498C5.72935 71.7654 5.39496 72.0789 5.10614 72.4394C4.33577 73.4012 4.36472 74.4322 5.18719 75.3545C6.01099 76.2781 7.07534 76.8415 8.1784 77.3496C11.0018 78.6502 13.9992 79.3719 17.0261 79.9795C19.881 80.5525 22.7666 80.9191 25.6686 81.167C29.9687 81.5343 34.2773 81.7038 38.5895 81.5908C42.303 81.4934 46.0127 81.2935 49.7077 80.8447C53.5725 80.3753 57.405 79.7708 61.1384 78.6406C63.1416 78.0342 65.1166 77.354 66.8503 76.1308C67.2272 75.8649 67.585 75.5751 67.8698 75.208C68.6454 74.208 68.6115 73.3197 67.7663 72.3711C67.0218 71.5356 66.0619 71.0135 65.071 70.5449C64.2561 70.1595 63.413 69.8425 62.5436 69.5976C62.372 69.5493 62.1568 69.5454 62.0895 69.3203ZM52.7702 68.9414C52.9368 68.8034 53.0948 68.8452 53.237 68.8838C55.0838 69.3852 56.9769 69.7365 58.7292 70.5478C59.3567 70.8384 59.9618 71.1719 60.487 71.6289C61.5214 72.5289 61.5621 73.5595 60.5651 74.4902C59.4254 75.5541 57.9827 76.0602 56.5368 76.5058C52.6747 77.6961 48.6986 78.2518 44.6813 78.5976C41.2587 78.8923 37.833 78.9683 34.402 78.9267C29.8359 78.8715 25.2973 78.5175 20.7575 77.6504C18.7894 77.2649 16.8957 76.7928 15.0729 76.0664C14.1592 75.7022 13.2914 75.2631 12.5378 74.6211C11.5173 73.7517 11.4622 72.6813 12.4186 71.7422C13.1864 70.9883 14.153 70.5591 15.1374 70.1689C16.4957 69.6306 17.9193 69.3169 19.3278 68.9521C19.4137 68.9299 19.5104 68.9492 19.6686 68.9492C19.5144 69.2514 19.2499 69.2645 19.0407 69.3291C18.2632 69.5693 17.5475 69.9105 16.9138 70.4336C15.9113 71.2609 15.9019 72.2204 16.944 73.0117C17.9839 73.8012 19.2014 74.2276 20.4343 74.5947C23.2928 75.4459 26.2315 75.8415 29.1931 76.1094C32.6363 76.4208 36.0877 76.4428 39.5358 76.3144C43.7523 76.1575 47.9468 75.7618 52.029 74.6035C53.3014 74.2425 54.5648 73.835 55.6618 73.0586C56.8254 72.235 56.8438 71.2954 55.7292 70.3975C55.0791 69.8738 54.3496 69.5029 53.5495 69.2627C53.2874 69.184 52.9935 69.156 52.7702 68.9414ZM40.7624 67.8203C43.3684 67.9765 45.9264 68.1563 48.4157 68.8457C49.029 69.0156 49.61 69.2674 50.1598 69.582C51.3162 70.2439 51.3194 71.2482 50.1657 71.9199C48.9878 72.6056 47.6765 72.9098 46.3591 73.1601C43.7972 73.647 41.2124 73.9206 38.6013 73.9932C36.2618 74.0582 33.9273 74.0368 31.5954 73.8584C29.0719 73.6653 26.5696 73.3311 24.1432 72.5703C23.556 72.3862 22.9903 72.1478 22.4889 71.7842C21.5719 71.1188 21.5961 70.2281 22.5485 69.6006C23.2631 69.1298 24.067 68.8635 24.8893 68.6738C27.022 68.182 29.1993 68.0126 31.3737 67.832C31.5375 67.8184 31.7196 67.7783 31.9431 67.9883C31.3739 68.1683 30.8312 68.153 30.3073 68.2207C28.8799 68.405 27.4629 68.6282 26.1462 69.2519C25.9233 69.3575 25.699 69.4821 25.5143 69.6426C25.1481 69.9608 25.1564 70.3571 25.5241 70.6767C25.8627 70.9708 26.2818 71.1232 26.697 71.2715C28.4809 71.9085 30.3469 72.1125 32.2145 72.2978C34.3556 72.5103 36.5055 72.4898 38.6481 72.3955C41.1355 72.2861 43.612 72.0197 45.9997 71.2422C46.3071 71.1421 46.6144 71.0135 46.8893 70.8457C47.6797 70.3631 47.6677 69.8482 46.86 69.4121C46.371 69.1481 45.8558 68.9412 45.3132 68.8027C43.8802 68.4369 42.4243 68.2198 40.9509 68.1103C40.7885 68.0984 40.5995 68.1371 40.4948 67.9512C40.5188 67.814 40.633 67.8435 40.7624 67.8203Z" fill="url(#paint1_radial_fav)"/>
  <path d="M53.1315 20.5978C63.8362 20.1948 71.6029 22.4306 72.8317 27.0148C74.7475 34.1646 60.0349 44.3198 39.9694 49.6964C19.9038 55.073 2.08379 53.6352 0.167662 46.4855C-1.07582 41.8434 4.6903 35.935 14.3796 30.8898C14.1491 31.3619 13.9282 31.8309 13.7175 32.296C6.43478 36.3756 2.23572 40.8375 3.17352 44.338C4.781 50.3343 20.8537 51.2377 39.0739 46.3556C57.294 41.4735 70.7618 32.655 69.1559 26.6584C68.2078 23.1198 62.2226 21.3545 53.7311 21.505C53.5325 21.202 53.3329 20.8994 53.1315 20.5978Z" fill="url(#paint2_linear_fav)"/>
  <path d="M28.8117 19.3627C28.2518 20.3324 27.326 20.8461 26.7438 20.5099C26.1616 20.1738 26.1435 19.1152 26.7034 18.1455C27.2633 17.1757 33.9102 9.07292 33.9102 9.07292C33.9102 9.07292 29.3716 18.3929 28.8117 19.3627Z" fill="#FDFDFD"/>
  <defs>
    <radialGradient id="paint0_radial_fav" cx="0" cy="0" r="1" gradientUnits="userSpaceOnUse" gradientTransform="translate(32.8827 24.6617) rotate(83.9667) scale(63.5476 48.1421)">
      <stop stop-color="#8B53AE"/>
      <stop offset="0.38647" stop-color="#5B2A86"/>
      <stop offset="0.95851" stop-color="#190C25"/>
    </radialGradient>
    <radialGradient id="paint1_radial_fav" cx="0" cy="0" r="1" gradientUnits="userSpaceOnUse" gradientTransform="translate(36.4794 76.2496) scale(36.4789 8.42979)">
      <stop stop-color="#2E083B"/>
      <stop offset="0.742587" stop-color="#6A2C91"/>
    </radialGradient>
    <linearGradient id="paint2_linear_fav" x1="1.93128" y1="48.0825" x2="73.2272" y2="25.8437" gradientUnits="userSpaceOnUse">
      <stop stop-color="#2E083B"/>
      <stop offset="0.110577" stop-color="#6A2C91"/>
      <stop offset="0.294579" stop-color="white"/>
      <stop offset="0.668311" stop-color="white"/>
      <stop offset="0.846154" stop-color="#6A2C91"/>
      <stop offset="1" stop-color="#2E083B"/>
    </linearGradient>
  </defs>
</svg>
