<svg width="464" height="85" viewBox="0 0 464 85" fill="none" xmlns="http://www.w3.org/2000/svg">
<path d="M62.6823 42.3304C62.6823 56.4078 51.1808 67.8197 36.993 67.8197C22.8052 67.8197 11.3037 56.4078 11.3037 42.3304C11.3037 30.8615 28.3548 9.9836 34.6738 2.64022C35.4388 1.75117 35.8213 1.30664 36.3183 1.12855C36.7404 0.977298 37.2456 0.977298 37.6677 1.12855C38.1647 1.30664 38.5472 1.75117 39.3122 2.64022C45.6312 9.9836 62.6823 30.8615 62.6823 42.3304Z" fill="white"/>
<path d="M62.0898 69.3198C62.1882 69.1845 62.3027 69.2526 62.4062 69.2798C64.666 69.8736 66.9467 70.402 69.0781 71.4009C70.0908 71.8755 71.0523 72.4347 71.8613 73.2134C73.0725 74.3794 73.29 75.7305 72.4688 76.9224C72.2532 77.235 71.9711 77.5017 71.6885 77.8159C69.7754 79.4454 67.5046 80.284 65.2139 81.0552C62.5052 81.9671 59.7192 82.5985 56.9023 83.0659C53.731 83.5921 50.5417 83.9769 47.335 84.2476C42.3626 84.6673 37.3851 84.7366 32.4023 84.6431C28.6667 84.573 24.9398 84.3239 21.2314 83.8638C15.9777 83.2119 10.7804 82.2873 5.80762 80.3921C4.22898 79.7904 2.70944 79.0562 1.39746 77.9575C1.10132 77.7095 0.836411 77.4351 0.614258 77.1196C-0.272725 75.8598 -0.198898 74.6636 0.84668 73.5161C2.19781 72.0336 3.9904 71.293 5.80859 70.6128C7.173 70.1024 8.58619 69.7446 10 69.397C10.1799 69.3527 10.3611 69.2524 10.5947 69.3882C10.379 69.6203 10.0851 69.6373 9.83398 69.7251C8.52793 70.1818 7.25054 70.6951 6.10938 71.4985C5.72982 71.7658 5.39518 72.0785 5.10645 72.439C4.33608 73.4008 4.36505 74.4317 5.1875 75.354C6.01126 76.2777 7.07563 76.841 8.17871 77.3491C11.0021 78.6497 13.9995 79.3724 17.0264 79.98C19.8813 80.553 22.767 80.9186 25.6689 81.1665C29.9692 81.5338 34.2785 81.7034 38.5908 81.5903C42.3041 81.493 46.0131 81.293 49.708 80.8442C53.573 80.3748 57.4062 79.7713 61.1396 78.6411C63.1427 78.0347 65.117 77.3543 66.8506 76.1313C67.2276 75.8654 67.5853 75.5747 67.8701 75.2075C68.6456 74.2076 68.6119 73.3192 67.7666 72.3706C67.0221 71.5352 66.0621 71.013 65.0713 70.5444C64.2565 70.1591 63.4132 69.843 62.5439 69.5981C62.3722 69.5498 62.1569 69.5453 62.0898 69.3198ZM52.7705 68.9409C52.9371 68.803 53.0952 68.8457 53.2373 68.8843C55.0842 69.3857 56.9781 69.7369 58.7305 70.5483C59.3577 70.8388 59.9623 71.1717 60.4873 71.6284C61.5217 72.5285 61.5626 73.5599 60.5654 74.4907C59.4258 75.5544 57.9838 76.0608 56.5381 76.5063C52.6758 77.6966 48.699 78.2513 44.6816 78.5972C41.2592 78.8918 37.8341 78.9678 34.4033 78.9263C29.837 78.871 25.2978 78.5171 20.7578 77.6499C18.7899 77.2645 16.8969 76.7932 15.0742 76.0669C14.1603 75.7027 13.2918 75.2637 12.5381 74.6216C11.5176 73.7522 11.4625 72.6808 12.4189 71.7417C13.1866 70.988 14.1534 70.5596 15.1377 70.1694C16.496 69.6311 17.9196 69.3173 19.3281 68.9526C19.414 68.9304 19.5107 68.9497 19.6689 68.9497C19.5147 69.2516 19.2501 69.265 19.041 69.3296C18.2637 69.5698 17.5477 69.9102 16.9141 70.4331C15.9116 71.2605 15.9031 72.2199 16.9453 73.0112C17.9851 73.8007 19.2018 74.2271 20.4346 74.5942C23.2933 75.4455 26.2325 75.8419 29.1943 76.1099C32.6374 76.4213 36.0882 76.4433 39.5361 76.3149C43.7525 76.158 47.9472 75.7622 52.0293 74.604C53.3017 74.243 54.5661 73.8355 55.6631 73.0591C56.8265 72.2355 56.8443 71.2949 55.7295 70.397C55.0795 69.8734 54.3499 69.5034 53.5498 69.2632C53.2876 69.1845 52.9938 69.1558 52.7705 68.9409ZM40.7627 67.8208C43.3686 67.9769 45.9268 68.1559 48.416 68.8452C49.0293 69.0151 49.6103 69.2669 50.1602 69.5815C51.3168 70.2433 51.3205 71.2476 50.167 71.9194C48.989 72.6054 47.6771 72.9093 46.3594 73.1597C43.7974 73.6465 41.2128 73.9201 38.6016 73.9927C36.2621 74.0577 33.9276 74.0363 31.5957 73.8579C29.0722 73.6648 26.5698 73.3315 24.1436 72.5708C23.5561 72.3866 22.9906 72.1475 22.4893 71.7837C21.5722 71.1183 21.5964 70.2276 22.5488 69.6001C23.2634 69.1293 24.0674 68.863 24.8896 68.6733C27.0223 68.1815 29.1996 68.0121 31.374 67.8315C31.5378 67.8179 31.7199 67.7779 31.9434 67.9878C31.3743 68.1678 30.8315 68.1535 30.3076 68.2212C28.8802 68.4055 27.4632 68.6287 26.1465 69.2524C25.9235 69.3581 25.6994 69.4826 25.5146 69.6431C25.1484 69.9614 25.1574 70.3576 25.5254 70.6772C25.8639 70.9711 26.2822 71.1238 26.6973 71.272C28.4812 71.909 30.3472 72.113 32.2148 72.2983C34.3559 72.5108 36.5059 72.4903 38.6484 72.396C41.1358 72.2866 43.6123 72.0193 46 71.2417C46.3074 71.1416 46.6147 71.014 46.8896 70.8462C47.6803 70.3635 47.6682 69.8487 46.8604 69.4126C46.3713 69.1486 45.8561 68.9417 45.3135 68.8032C43.8806 68.4374 42.4254 68.2203 40.9521 68.1108C40.7897 68.0988 40.6008 68.1368 40.4961 67.9507C40.5203 67.8141 40.6336 67.8439 40.7627 67.8208Z" fill="white"/>
<path d="M53.1323 20.5981C63.8368 20.1952 71.6028 22.431 72.8315 27.0151C74.7473 34.165 60.0349 44.3201 39.9692 49.6968C19.9038 55.0733 2.08376 53.6354 0.16748 46.4858C-1.07599 41.8438 4.69034 35.9353 14.3794 30.8901C14.1491 31.362 13.9279 31.8305 13.7173 32.2954C6.4345 36.375 2.23542 40.8378 3.17334 44.3384C4.78081 50.3346 20.8537 51.2379 39.0737 46.356C57.2935 41.474 70.762 32.6553 69.1567 26.6587C68.2086 23.1204 62.2235 21.355 53.7329 21.5054C53.5342 21.2022 53.3338 20.8998 53.1323 20.5981Z" fill="white"/>
<path d="M146.664 57.8398L143.528 48.8158H124.456L121.32 57.8398H113.32L129.576 13.0398H138.408L154.6 57.8398H146.664ZM126.888 41.9038H141.096L133.992 21.6798L126.888 41.9038ZM180.941 25.8398H187.853V70.6398H180.941V53.2958C178.338 56.8798 174.605 58.6718 169.741 58.6718C165.346 58.6718 161.591 57.0505 158.477 53.8078C155.362 50.5652 153.805 46.5758 153.805 41.8398C153.805 37.1465 155.362 33.1785 158.477 29.9358C161.591 26.6505 165.346 25.0078 169.741 25.0078C174.605 25.0078 178.338 26.8212 180.941 30.4478V25.8398ZM163.597 49.1998C165.517 51.1198 167.927 52.0798 170.829 52.0798C173.73 52.0798 176.141 51.1198 178.061 49.1998C179.981 47.2372 180.941 44.7838 180.941 41.8398C180.941 38.8958 179.981 36.4638 178.061 34.5438C176.141 32.5812 173.73 31.5998 170.829 31.5998C167.927 31.5998 165.517 32.5812 163.597 34.5438C161.677 36.4638 160.717 38.8958 160.717 41.8398C160.717 44.7838 161.677 47.2372 163.597 49.1998ZM214.917 25.8398H221.829V57.8398H214.917V53.7438C212.826 57.0292 209.52 58.6718 204.997 58.6718C201.328 58.6718 198.362 57.4985 196.101 55.1518C193.84 52.8052 192.709 49.5838 192.709 45.4878V25.8398H199.621V44.7838C199.621 47.1732 200.261 49.0078 201.541 50.2878C202.821 51.5678 204.57 52.2078 206.789 52.2078C209.221 52.2078 211.184 51.4612 212.677 49.9678C214.17 48.4318 214.917 46.1065 214.917 42.9918V25.8398ZM252.696 25.8398H259.608V57.8398H252.696V53.2318C250.093 56.8585 246.36 58.6718 241.496 58.6718C237.101 58.6718 233.346 57.0505 230.232 53.8078C227.117 50.5225 225.56 46.5332 225.56 41.8398C225.56 37.1038 227.117 33.1145 230.232 29.8718C233.346 26.6292 237.101 25.0078 241.496 25.0078C246.36 25.0078 250.093 26.7998 252.696 30.3838V25.8398ZM235.352 49.1998C237.272 51.1198 239.682 52.0798 242.584 52.0798C245.485 52.0798 247.896 51.1198 249.816 49.1998C251.736 47.2372 252.696 44.7838 252.696 41.8398C252.696 38.8958 251.736 36.4638 249.816 34.5438C247.896 32.5812 245.485 31.5998 242.584 31.5998C239.682 31.5998 237.272 32.5812 235.352 34.5438C233.432 36.4638 232.472 38.8958 232.472 41.8398C232.472 44.7838 233.432 47.2372 235.352 49.1998ZM286.736 58.6718C279.995 58.6718 274.405 56.4532 269.968 52.0158C265.531 47.5358 263.312 42.0105 263.312 35.4398C263.312 28.8692 265.531 23.3652 269.968 18.9278C274.405 14.4478 279.995 12.2078 286.736 12.2078C290.789 12.2078 294.523 13.1678 297.936 15.0878C301.392 17.0078 304.08 19.6105 306 22.8958L299.6 26.6078C298.405 24.3892 296.656 22.6398 294.352 21.3598C292.091 20.0372 289.552 19.3758 286.736 19.3758C281.957 19.3758 278.075 20.8905 275.088 23.9198C272.144 26.9492 270.672 30.7892 270.672 35.4398C270.672 40.0905 272.144 43.9305 275.088 46.9598C278.075 49.9892 281.957 51.5038 286.736 51.5038C289.552 51.5038 292.112 50.8638 294.416 49.5838C296.72 48.2612 298.448 46.4905 299.6 44.2718L306 47.9198C304.123 51.2052 301.456 53.8292 298 55.7918C294.587 57.7118 290.832 58.6718 286.736 58.6718ZM334.388 25.8398H341.3V57.8398H334.388V53.2318C331.785 56.8585 328.052 58.6718 323.188 58.6718C318.793 58.6718 315.039 57.0505 311.924 53.8078C308.809 50.5225 307.252 46.5332 307.252 41.8398C307.252 37.1038 308.809 33.1145 311.924 29.8718C315.039 26.6292 318.793 25.0078 323.188 25.0078C328.052 25.0078 331.785 26.7998 334.388 30.3838V25.8398ZM317.044 49.1998C318.964 51.1198 321.375 52.0798 324.276 52.0798C327.177 52.0798 329.588 51.1198 331.508 49.1998C333.428 47.2372 334.388 44.7838 334.388 41.8398C334.388 38.8958 333.428 36.4638 331.508 34.5438C329.588 32.5812 327.177 31.5998 324.276 31.5998C321.375 31.5998 318.964 32.5812 317.044 34.5438C315.124 36.4638 314.164 38.8958 314.164 41.8398C314.164 44.7838 315.124 47.2372 317.044 49.1998ZM353.709 31.2158C355.458 27.2478 358.743 25.2638 363.565 25.2638V32.7518C360.919 32.5812 358.615 33.2212 356.653 34.6718C354.69 36.0798 353.709 38.4265 353.709 41.7118V57.8398H346.797V25.8398H353.709V31.2158ZM370.052 44.7838C370.564 47.2158 371.737 49.0932 373.572 50.4158C375.406 51.6958 377.646 52.3358 380.292 52.3358C383.961 52.3358 386.713 51.0132 388.548 48.3678L394.244 51.6958C391.086 56.3465 386.414 58.6718 380.228 58.6718C375.022 58.6718 370.82 57.0932 367.62 53.9358C364.42 50.7358 362.82 46.7038 362.82 41.8398C362.82 37.0612 364.398 33.0718 367.556 29.8718C370.713 26.6292 374.766 25.0078 379.716 25.0078C384.409 25.0078 388.249 26.6505 391.236 29.9358C394.265 33.2212 395.78 37.2105 395.78 41.9038C395.78 42.6292 395.694 43.5892 395.524 44.7838H370.052ZM369.988 39.1518H388.804C388.334 36.5492 387.246 34.5865 385.54 33.2638C383.876 31.9412 381.913 31.2798 379.652 31.2798C377.092 31.2798 374.958 31.9838 373.252 33.3918C371.545 34.7998 370.457 36.7198 369.988 39.1518Z" fill="white"/>
<rect x="399.5" y="13.3398" width="63" height="36" rx="18" stroke="white" stroke-width="3"/>
<path d="M418.016 29.9038C419.232 30.1918 420.216 30.7598 420.968 31.6078C421.736 32.4398 422.12 33.4878 422.12 34.7518C422.12 36.4318 421.552 37.7518 420.416 38.7118C419.28 39.6718 417.888 40.1518 416.24 40.1518C414.96 40.1518 413.808 39.8558 412.784 39.2638C411.776 38.6718 411.048 37.8078 410.6 36.6718L412.952 35.3038C413.448 36.7438 414.544 37.4638 416.24 37.4638C417.2 37.4638 417.96 37.2238 418.52 36.7438C419.08 36.2478 419.36 35.5838 419.36 34.7518C419.36 33.9198 419.08 33.2638 418.52 32.7838C417.96 32.3038 417.2 32.0638 416.24 32.0638H415.616L414.512 30.4078L418.136 25.6318H411.104V23.0398H421.424V25.3918L418.016 29.9038ZM429.512 28.6798C431.256 28.6798 432.68 29.2158 433.784 30.2878C434.888 31.3438 435.44 32.7198 435.44 34.4158C435.44 36.1118 434.888 37.4958 433.784 38.5678C432.68 39.6238 431.256 40.1518 429.512 40.1518C427.752 40.1518 426.32 39.6238 425.216 38.5678C424.112 37.4958 423.56 36.1118 423.56 34.4158C423.56 33.1358 423.896 32.0078 424.568 31.0318L429.896 23.0398H433.04L429.2 28.6798H429.512ZM429.512 37.5358C430.44 37.5358 431.2 37.2558 431.792 36.6958C432.384 36.1198 432.68 35.3598 432.68 34.4158C432.68 33.4718 432.384 32.7198 431.792 32.1598C431.2 31.5838 430.44 31.2958 429.512 31.2958C428.568 31.2958 427.8 31.5838 427.208 32.1598C426.616 32.7198 426.32 33.4718 426.32 34.4158C426.32 35.3598 426.616 36.1198 427.208 36.6958C427.8 37.2558 428.568 37.5358 429.512 37.5358ZM448.447 37.7758C447.295 39.3598 445.679 40.1518 443.599 40.1518C441.519 40.1518 439.895 39.3598 438.727 37.7758C437.575 36.1918 436.999 34.0798 436.999 31.4398C436.999 28.7998 437.575 26.6878 438.727 25.1038C439.895 23.5198 441.519 22.7278 443.599 22.7278C445.679 22.7278 447.295 23.5198 448.447 25.1038C449.615 26.6878 450.199 28.7998 450.199 31.4398C450.199 34.0798 449.615 36.1918 448.447 37.7758ZM443.599 37.4638C444.847 37.4638 445.799 36.9438 446.455 35.9038C447.111 34.8638 447.439 33.3758 447.439 31.4398C447.439 29.5038 447.111 28.0158 446.455 26.9758C445.799 25.9358 444.847 25.4158 443.599 25.4158C442.367 25.4158 441.415 25.9358 440.743 26.9758C440.087 28.0158 439.759 29.5038 439.759 31.4398C439.759 33.3758 440.087 34.8638 440.743 35.9038C441.415 36.9438 442.367 37.4638 443.599 37.4638Z" fill="white"/>
<path d="M319.732 71.6718C320.73 71.6718 321.58 72.0265 322.28 72.7358C322.989 73.4452 323.344 74.3132 323.344 75.3398C323.344 76.3665 322.989 77.2345 322.28 77.9438C321.58 78.6532 320.73 79.0078 319.732 79.0078C318.49 79.0078 317.548 78.4945 316.904 77.4678V78.8398H315.98V69.0398H316.904V73.2118C317.548 72.1852 318.49 71.6718 319.732 71.6718ZM317.702 77.3138C318.234 77.8458 318.887 78.1118 319.662 78.1118C320.436 78.1118 321.09 77.8458 321.622 77.3138C322.154 76.7725 322.42 76.1145 322.42 75.3398C322.42 74.5652 322.154 73.9118 321.622 73.3798C321.09 72.8385 320.436 72.5678 319.662 72.5678C318.887 72.5678 318.234 72.8385 317.702 73.3798C317.17 73.9118 316.904 74.5652 316.904 75.3398C316.904 76.1145 317.17 76.7725 317.702 77.3138ZM329.646 71.8398H330.626L327.63 79.4838C327.36 80.1745 326.972 80.7158 326.468 81.1078C325.974 81.5092 325.418 81.6865 324.802 81.6398V80.7718C325.642 80.8652 326.282 80.3798 326.72 79.3158L326.902 78.8818L323.766 71.8398H324.746L327.378 77.7058L329.646 71.8398ZM338.463 79.0078C337.567 79.0078 336.797 78.7978 336.153 78.3778C335.519 77.9485 335.075 77.3605 334.823 76.6138L335.663 76.1238C335.841 76.7305 336.167 77.2065 336.643 77.5518C337.119 77.8878 337.731 78.0558 338.477 78.0558C339.205 78.0558 339.77 77.8972 340.171 77.5798C340.582 77.2532 340.787 76.8238 340.787 76.2918C340.787 75.7785 340.601 75.3912 340.227 75.1298C339.854 74.8685 339.238 74.5978 338.379 74.3178C337.362 73.9818 336.69 73.7112 336.363 73.5058C335.617 73.0578 335.243 72.4092 335.243 71.5598C335.243 70.7292 335.533 70.0758 336.111 69.5998C336.69 69.1145 337.404 68.8718 338.253 68.8718C339.019 68.8718 339.681 69.0725 340.241 69.4738C340.801 69.8658 341.217 70.3698 341.487 70.9858L340.661 71.4478C340.213 70.3652 339.411 69.8238 338.253 69.8238C337.647 69.8238 337.157 69.9732 336.783 70.2718C336.41 70.5705 336.223 70.9858 336.223 71.5178C336.223 72.0032 336.391 72.3672 336.727 72.6098C337.063 72.8525 337.619 73.0998 338.393 73.3518C338.748 73.4732 339 73.5618 339.149 73.6178C339.308 73.6645 339.532 73.7485 339.821 73.8698C340.12 73.9818 340.339 74.0845 340.479 74.1778C340.619 74.2618 340.787 74.3832 340.983 74.5418C341.189 74.6912 341.333 74.8452 341.417 75.0038C341.511 75.1532 341.59 75.3398 341.655 75.5638C341.73 75.7785 341.767 76.0118 341.767 76.2638C341.767 77.0945 341.464 77.7618 340.857 78.2658C340.251 78.7605 339.453 79.0078 338.463 79.0078ZM346.586 71.6718C347.435 71.6718 348.102 71.9332 348.588 72.4558C349.082 72.9692 349.33 73.6645 349.33 74.5418V78.8398H348.406V74.5418C348.406 73.9165 348.238 73.4312 347.902 73.0858C347.575 72.7405 347.108 72.5678 346.502 72.5678C345.83 72.5678 345.284 72.7825 344.864 73.2118C344.444 73.6318 344.234 74.2852 344.234 75.1718V78.8398H343.31V69.0398H344.234V72.9318C344.756 72.0918 345.54 71.6718 346.586 71.6718ZM356.044 71.8398H356.968V78.8398H356.044V77.7478C355.522 78.5878 354.738 79.0078 353.692 79.0078C352.843 79.0078 352.171 78.7512 351.676 78.2378C351.191 77.7152 350.948 77.0152 350.948 76.1378V71.8398H351.872V76.1378C351.872 76.7632 352.036 77.2485 352.362 77.5938C352.698 77.9392 353.17 78.1118 353.776 78.1118C354.448 78.1118 354.994 77.9018 355.414 77.4818C355.834 77.0525 356.044 76.3945 356.044 75.5078V71.8398ZM362.675 71.6718C363.674 71.6718 364.523 72.0265 365.223 72.7358C365.932 73.4452 366.287 74.3132 366.287 75.3398C366.287 76.3665 365.932 77.2345 365.223 77.9438C364.523 78.6532 363.674 79.0078 362.675 79.0078C361.434 79.0078 360.491 78.4945 359.847 77.4678V78.8398H358.923V69.0398H359.847V73.2118C360.491 72.1852 361.434 71.6718 362.675 71.6718ZM360.645 77.3138C361.177 77.8458 361.83 78.1118 362.605 78.1118C363.38 78.1118 364.033 77.8458 364.565 77.3138C365.097 76.7725 365.363 76.1145 365.363 75.3398C365.363 74.5652 365.097 73.9118 364.565 73.3798C364.033 72.8385 363.38 72.5678 362.605 72.5678C361.83 72.5678 361.177 72.8385 360.645 73.3798C360.113 73.9118 359.847 74.5652 359.847 75.3398C359.847 76.1145 360.113 76.7725 360.645 77.3138ZM371.099 71.6718C371.949 71.6718 372.616 71.9332 373.101 72.4558C373.596 72.9692 373.843 73.6645 373.843 74.5418V78.8398H372.919V74.5418C372.919 73.9165 372.751 73.4312 372.415 73.0858C372.089 72.7405 371.622 72.5678 371.015 72.5678C370.343 72.5678 369.797 72.7825 369.377 73.2118C368.957 73.6318 368.747 74.2852 368.747 75.1718V78.8398H367.823V69.0398H368.747V72.9318C369.27 72.0918 370.054 71.6718 371.099 71.6718ZM381.65 71.8398H382.574V78.8398H381.65V77.4678C381.006 78.4945 380.063 79.0078 378.822 79.0078C377.823 79.0078 376.969 78.6532 376.26 77.9438C375.56 77.2345 375.21 76.3665 375.21 75.3398C375.21 74.3132 375.56 73.4452 376.26 72.7358C376.969 72.0265 377.823 71.6718 378.822 71.6718C380.063 71.6718 381.006 72.1852 381.65 73.2118V71.8398ZM376.932 77.3138C377.464 77.8458 378.117 78.1118 378.892 78.1118C379.667 78.1118 380.32 77.8458 380.852 77.3138C381.384 76.7725 381.65 76.1145 381.65 75.3398C381.65 74.5652 381.384 73.9118 380.852 73.3798C380.32 72.8385 379.667 72.5678 378.892 72.5678C378.117 72.5678 377.464 72.8385 376.932 73.3798C376.4 73.9118 376.134 74.5652 376.134 75.3398C376.134 76.1145 376.4 76.7725 376.932 77.3138ZM391.992 71.6718C392.776 71.6718 393.406 71.9238 393.882 72.4278C394.368 72.9318 394.61 73.6132 394.61 74.4718V78.8398H393.686V74.4718C393.686 73.8652 393.528 73.3985 393.21 73.0718C392.902 72.7358 392.492 72.5678 391.978 72.5678C391.4 72.5678 390.928 72.7638 390.564 73.1558C390.21 73.5385 390.032 74.1405 390.032 74.9618V78.8398H389.108V74.4718C389.108 73.8558 388.959 73.3845 388.66 73.0578C388.371 72.7312 387.974 72.5678 387.47 72.5678C386.91 72.5678 386.434 72.7638 386.042 73.1558C385.65 73.5478 385.454 74.1498 385.454 74.9618V78.8398H384.53V71.8398H385.454V72.8618C385.958 72.0685 386.672 71.6718 387.596 71.6718C388.604 71.6718 389.314 72.0965 389.724 72.9458C390.228 72.0965 390.984 71.6718 391.992 71.6718Z" fill="white"/>
</svg>
