<svg width="464" height="85" viewBox="0 0 464 85" fill="none" xmlns="http://www.w3.org/2000/svg">
<path d="M62.6823 42.3304C62.6823 56.4078 51.1808 67.8197 36.993 67.8197C22.8052 67.8197 11.3037 56.4078 11.3037 42.3304C11.3037 30.8615 28.3548 9.98363 34.6738 2.64025C35.4388 1.7512 35.8213 1.30667 36.3183 1.12858C36.7404 0.977324 37.2456 0.977324 37.6677 1.12858C38.1647 1.30667 38.5472 1.7512 39.3122 2.64025C45.6312 9.98363 62.6823 30.8615 62.6823 42.3304Z" fill="url(#paint0_radial_69_91)"/>
<path d="M62.0895 69.3203C62.1879 69.1847 62.3023 69.253 62.4059 69.2803C64.6657 69.8741 66.9465 70.4015 69.0778 71.4004C70.0905 71.875 71.052 72.4342 71.861 73.2129C73.0723 74.3789 73.2898 75.73 72.4684 76.9219C72.2528 77.2348 71.9701 77.5019 71.6872 77.8164C69.7742 79.4458 67.5042 80.2845 65.2136 81.0557C62.5048 81.9676 59.7189 82.599 56.902 83.0664C53.7306 83.5926 50.5414 83.9773 47.3347 84.248C42.3621 84.6678 37.384 84.7361 32.4011 84.6426C28.6655 84.5724 24.9394 84.3243 21.2311 83.8642C15.9774 83.2124 10.7801 82.2877 5.80731 80.3926C4.22879 79.791 2.70906 79.0565 1.39715 77.958C1.10109 77.7101 0.836065 77.4355 0.613949 77.1201C-0.273094 75.8603 -0.200057 74.6641 0.845394 73.5166C2.19661 72.0337 3.98985 71.2926 5.80828 70.6123C7.17265 70.1019 8.58592 69.745 9.99969 69.3975C10.1796 69.3532 10.3607 69.2519 10.5944 69.3877C10.3787 69.6199 10.0848 69.6368 9.83368 69.7246C8.52761 70.1813 7.25024 70.6946 6.10907 71.498C5.72935 71.7654 5.39496 72.0789 5.10614 72.4394C4.33577 73.4012 4.36472 74.4322 5.18719 75.3545C6.01099 76.2781 7.07534 76.8415 8.1784 77.3496C11.0018 78.6502 13.9992 79.3719 17.0261 79.9795C19.881 80.5525 22.7666 80.9191 25.6686 81.167C29.9687 81.5343 34.2773 81.7038 38.5895 81.5908C42.303 81.4934 46.0127 81.2935 49.7077 80.8447C53.5725 80.3753 57.405 79.7708 61.1384 78.6406C63.1416 78.0342 65.1166 77.354 66.8503 76.1308C67.2272 75.8649 67.585 75.5751 67.8698 75.208C68.6454 74.208 68.6115 73.3197 67.7663 72.3711C67.0218 71.5356 66.0619 71.0135 65.071 70.5449C64.2561 70.1595 63.413 69.8425 62.5436 69.5976C62.372 69.5493 62.1568 69.5454 62.0895 69.3203ZM52.7702 68.9414C52.9368 68.8034 53.0948 68.8452 53.237 68.8838C55.0838 69.3852 56.9769 69.7365 58.7292 70.5478C59.3567 70.8384 59.9618 71.1719 60.487 71.6289C61.5214 72.5289 61.5621 73.5595 60.5651 74.4902C59.4254 75.5541 57.9827 76.0602 56.5368 76.5058C52.6747 77.6961 48.6986 78.2518 44.6813 78.5976C41.2587 78.8923 37.833 78.9683 34.402 78.9267C29.8359 78.8715 25.2973 78.5175 20.7575 77.6504C18.7894 77.2649 16.8957 76.7928 15.0729 76.0664C14.1592 75.7022 13.2914 75.2631 12.5378 74.6211C11.5173 73.7517 11.4622 72.6813 12.4186 71.7422C13.1864 70.9883 14.153 70.5591 15.1374 70.1689C16.4957 69.6306 17.9193 69.3169 19.3278 68.9521C19.4137 68.9299 19.5104 68.9492 19.6686 68.9492C19.5144 69.2514 19.2499 69.2645 19.0407 69.3291C18.2632 69.5693 17.5475 69.9105 16.9138 70.4336C15.9113 71.2609 15.9019 72.2204 16.944 73.0117C17.9839 73.8012 19.2014 74.2276 20.4343 74.5947C23.2928 75.4459 26.2315 75.8415 29.1931 76.1094C32.6363 76.4208 36.0877 76.4428 39.5358 76.3144C43.7523 76.1575 47.9468 75.7618 52.029 74.6035C53.3014 74.2425 54.5648 73.835 55.6618 73.0586C56.8254 72.235 56.8438 71.2954 55.7292 70.3975C55.0791 69.8738 54.3496 69.5029 53.5495 69.2627C53.2874 69.184 52.9935 69.156 52.7702 68.9414ZM40.7624 67.8203C43.3684 67.9765 45.9264 68.1563 48.4157 68.8457C49.029 69.0156 49.61 69.2674 50.1598 69.582C51.3162 70.2439 51.3194 71.2482 50.1657 71.9199C48.9878 72.6056 47.6765 72.9098 46.3591 73.1601C43.7972 73.647 41.2124 73.9206 38.6013 73.9932C36.2618 74.0582 33.9273 74.0368 31.5954 73.8584C29.0719 73.6653 26.5696 73.3311 24.1432 72.5703C23.556 72.3862 22.9903 72.1478 22.4889 71.7842C21.5719 71.1188 21.5961 70.2281 22.5485 69.6006C23.2631 69.1298 24.067 68.8635 24.8893 68.6738C27.022 68.182 29.1993 68.0126 31.3737 67.832C31.5375 67.8184 31.7196 67.7783 31.9431 67.9883C31.3739 68.1683 30.8312 68.153 30.3073 68.2207C28.8799 68.405 27.4629 68.6282 26.1462 69.2519C25.9233 69.3575 25.699 69.4821 25.5143 69.6426C25.1481 69.9608 25.1564 70.3571 25.5241 70.6767C25.8627 70.9708 26.2818 71.1232 26.697 71.2715C28.4809 71.9085 30.3469 72.1125 32.2145 72.2978C34.3556 72.5103 36.5055 72.4898 38.6481 72.3955C41.1355 72.2861 43.612 72.0197 45.9997 71.2422C46.3071 71.1421 46.6144 71.0135 46.8893 70.8457C47.6797 70.3631 47.6677 69.8482 46.86 69.4121C46.371 69.1481 45.8558 68.9412 45.3132 68.8027C43.8802 68.4369 42.4243 68.2198 40.9509 68.1103C40.7885 68.0984 40.5995 68.1371 40.4948 67.9512C40.5188 67.814 40.633 67.8435 40.7624 67.8203Z" fill="url(#paint1_radial_69_91)"/>
<path d="M53.1315 20.5978C63.8362 20.1948 71.6029 22.4306 72.8317 27.0148C74.7475 34.1646 60.0349 44.3198 39.9694 49.6964C19.9038 55.073 2.08379 53.6352 0.167662 46.4855C-1.07582 41.8434 4.6903 35.935 14.3796 30.8898C14.1491 31.3619 13.9282 31.8309 13.7175 32.296C6.43478 36.3756 2.23572 40.8375 3.17352 44.338C4.781 50.3343 20.8537 51.2377 39.0739 46.3556C57.294 41.4735 70.7618 32.655 69.1559 26.6584C68.2078 23.1198 62.2226 21.3545 53.7311 21.505C53.5325 21.202 53.3329 20.8994 53.1315 20.5978Z" fill="url(#paint2_linear_69_91)"/>
<path d="M28.8116 19.3628C28.2517 20.3325 27.3259 20.8462 26.7437 20.51C26.1615 20.1739 26.1434 19.1153 26.7033 18.1456C27.2632 17.1758 33.9101 9.073 33.9101 9.073C33.9101 9.073 29.3715 18.393 28.8116 19.3628Z" fill="#FDFDFD"/>
<path d="M146.664 57.8395L143.528 48.8155H124.456L121.32 57.8395H113.32L129.576 13.0395H138.408L154.6 57.8395H146.664ZM126.888 41.9035H141.096L133.992 21.6795L126.888 41.9035ZM180.941 25.8395H187.853V70.6395H180.941V53.2955C178.338 56.8795 174.605 58.6715 169.741 58.6715C165.346 58.6715 161.591 57.0502 158.477 53.8075C155.362 50.5648 153.805 46.5755 153.805 41.8395C153.805 37.1462 155.362 33.1782 158.477 29.9355C161.591 26.6502 165.346 25.0075 169.741 25.0075C174.605 25.0075 178.338 26.8208 180.941 30.4475V25.8395ZM163.597 49.1995C165.517 51.1195 167.927 52.0795 170.829 52.0795C173.73 52.0795 176.141 51.1195 178.061 49.1995C179.981 47.2368 180.941 44.7835 180.941 41.8395C180.941 38.8955 179.981 36.4635 178.061 34.5435C176.141 32.5808 173.73 31.5995 170.829 31.5995C167.927 31.5995 165.517 32.5808 163.597 34.5435C161.677 36.4635 160.717 38.8955 160.717 41.8395C160.717 44.7835 161.677 47.2368 163.597 49.1995ZM214.917 25.8395H221.829V57.8395H214.917V53.7435C212.826 57.0288 209.52 58.6715 204.997 58.6715C201.328 58.6715 198.362 57.4982 196.101 55.1515C193.84 52.8048 192.709 49.5835 192.709 45.4875V25.8395H199.621V44.7835C199.621 47.1728 200.261 49.0075 201.541 50.2875C202.821 51.5675 204.57 52.2075 206.789 52.2075C209.221 52.2075 211.184 51.4608 212.677 49.9675C214.17 48.4315 214.917 46.1062 214.917 42.9915V25.8395ZM252.696 25.8395H259.608V57.8395H252.696V53.2315C250.093 56.8582 246.36 58.6715 241.496 58.6715C237.101 58.6715 233.346 57.0502 230.232 53.8075C227.117 50.5222 225.56 46.5328 225.56 41.8395C225.56 37.1035 227.117 33.1142 230.232 29.8715C233.346 26.6288 237.101 25.0075 241.496 25.0075C246.36 25.0075 250.093 26.7995 252.696 30.3835V25.8395ZM235.352 49.1995C237.272 51.1195 239.682 52.0795 242.584 52.0795C245.485 52.0795 247.896 51.1195 249.816 49.1995C251.736 47.2368 252.696 44.7835 252.696 41.8395C252.696 38.8955 251.736 36.4635 249.816 34.5435C247.896 32.5808 245.485 31.5995 242.584 31.5995C239.682 31.5995 237.272 32.5808 235.352 34.5435C233.432 36.4635 232.472 38.8955 232.472 41.8395C232.472 44.7835 233.432 47.2368 235.352 49.1995ZM286.736 58.6715C279.995 58.6715 274.405 56.4528 269.968 52.0155C265.531 47.5355 263.312 42.0102 263.312 35.4395C263.312 28.8688 265.531 23.3648 269.968 18.9275C274.405 14.4475 279.995 12.2075 286.736 12.2075C290.789 12.2075 294.523 13.1675 297.936 15.0875C301.392 17.0075 304.08 19.6102 306 22.8955L299.6 26.6075C298.405 24.3888 296.656 22.6395 294.352 21.3595C292.091 20.0368 289.552 19.3755 286.736 19.3755C281.957 19.3755 278.075 20.8902 275.088 23.9195C272.144 26.9488 270.672 30.7888 270.672 35.4395C270.672 40.0902 272.144 43.9302 275.088 46.9595C278.075 49.9888 281.957 51.5035 286.736 51.5035C289.552 51.5035 292.112 50.8635 294.416 49.5835C296.72 48.2608 298.448 46.4902 299.6 44.2715L306 47.9195C304.123 51.2048 301.456 53.8288 298 55.7915C294.587 57.7115 290.832 58.6715 286.736 58.6715ZM334.388 25.8395H341.3V57.8395H334.388V53.2315C331.785 56.8582 328.052 58.6715 323.188 58.6715C318.793 58.6715 315.039 57.0502 311.924 53.8075C308.809 50.5222 307.252 46.5328 307.252 41.8395C307.252 37.1035 308.809 33.1142 311.924 29.8715C315.039 26.6288 318.793 25.0075 323.188 25.0075C328.052 25.0075 331.785 26.7995 334.388 30.3835V25.8395ZM317.044 49.1995C318.964 51.1195 321.375 52.0795 324.276 52.0795C327.177 52.0795 329.588 51.1195 331.508 49.1995C333.428 47.2368 334.388 44.7835 334.388 41.8395C334.388 38.8955 333.428 36.4635 331.508 34.5435C329.588 32.5808 327.177 31.5995 324.276 31.5995C321.375 31.5995 318.964 32.5808 317.044 34.5435C315.124 36.4635 314.164 38.8955 314.164 41.8395C314.164 44.7835 315.124 47.2368 317.044 49.1995ZM353.709 31.2155C355.458 27.2475 358.743 25.2635 363.565 25.2635V32.7515C360.919 32.5808 358.615 33.2208 356.653 34.6715C354.69 36.0795 353.709 38.4262 353.709 41.7115V57.8395H346.797V25.8395H353.709V31.2155ZM370.052 44.7835C370.564 47.2155 371.737 49.0928 373.572 50.4155C375.406 51.6955 377.646 52.3355 380.292 52.3355C383.961 52.3355 386.713 51.0128 388.548 48.3675L394.244 51.6955C391.086 56.3462 386.414 58.6715 380.228 58.6715C375.022 58.6715 370.82 57.0928 367.62 53.9355C364.42 50.7355 362.82 46.7035 362.82 41.8395C362.82 37.0608 364.398 33.0715 367.556 29.8715C370.713 26.6288 374.766 25.0075 379.716 25.0075C384.409 25.0075 388.249 26.6502 391.236 29.9355C394.265 33.2208 395.78 37.2102 395.78 41.9035C395.78 42.6288 395.694 43.5888 395.524 44.7835H370.052ZM369.988 39.1515H388.804C388.334 36.5488 387.246 34.5862 385.54 33.2635C383.876 31.9408 381.913 31.2795 379.652 31.2795C377.092 31.2795 374.958 31.9835 373.252 33.3915C371.545 34.7995 370.457 36.7195 369.988 39.1515Z" fill="#5E2C8B"/>
<path d="M444.5 13.3396H417.5C407.559 13.3396 399.5 21.3985 399.5 31.3396C399.5 41.2807 407.559 49.3396 417.5 49.3396H444.5C454.441 49.3396 462.5 41.2807 462.5 31.3396C462.5 21.3985 454.441 13.3396 444.5 13.3396Z" stroke="#5E2C8B" stroke-width="3"/>
<path d="M418.016 29.9035C419.232 30.1915 420.216 30.7595 420.968 31.6075C421.736 32.4395 422.12 33.4875 422.12 34.7515C422.12 36.4315 421.552 37.7515 420.416 38.7115C419.28 39.6715 417.888 40.1515 416.24 40.1515C414.96 40.1515 413.808 39.8555 412.784 39.2635C411.776 38.6715 411.048 37.8075 410.6 36.6715L412.952 35.3035C413.448 36.7435 414.544 37.4635 416.24 37.4635C417.2 37.4635 417.96 37.2235 418.52 36.7435C419.08 36.2475 419.36 35.5835 419.36 34.7515C419.36 33.9195 419.08 33.2635 418.52 32.7835C417.96 32.3035 417.2 32.0635 416.24 32.0635H415.616L414.512 30.4075L418.136 25.6315H411.104V23.0395H421.424V25.3915L418.016 29.9035ZM429.512 28.6795C431.256 28.6795 432.68 29.2155 433.784 30.2875C434.888 31.3435 435.44 32.7195 435.44 34.4155C435.44 36.1115 434.888 37.4955 433.784 38.5675C432.68 39.6235 431.256 40.1515 429.512 40.1515C427.752 40.1515 426.32 39.6235 425.216 38.5675C424.112 37.4955 423.56 36.1115 423.56 34.4155C423.56 33.1355 423.896 32.0075 424.568 31.0315L429.896 23.0395H433.04L429.2 28.6795H429.512ZM429.512 37.5355C430.44 37.5355 431.2 37.2555 431.792 36.6955C432.384 36.1195 432.68 35.3595 432.68 34.4155C432.68 33.4715 432.384 32.7195 431.792 32.1595C431.2 31.5835 430.44 31.2955 429.512 31.2955C428.568 31.2955 427.8 31.5835 427.208 32.1595C426.616 32.7195 426.32 33.4715 426.32 34.4155C426.32 35.3595 426.616 36.1195 427.208 36.6955C427.8 37.2555 428.568 37.5355 429.512 37.5355ZM448.447 37.7755C447.295 39.3595 445.679 40.1515 443.599 40.1515C441.519 40.1515 439.895 39.3595 438.727 37.7755C437.575 36.1915 436.999 34.0795 436.999 31.4395C436.999 28.7995 437.575 26.6875 438.727 25.1035C439.895 23.5195 441.519 22.7275 443.599 22.7275C445.679 22.7275 447.295 23.5195 448.447 25.1035C449.615 26.6875 450.199 28.7995 450.199 31.4395C450.199 34.0795 449.615 36.1915 448.447 37.7755ZM443.599 37.4635C444.847 37.4635 445.799 36.9435 446.455 35.9035C447.111 34.8635 447.439 33.3755 447.439 31.4395C447.439 29.5035 447.111 28.0155 446.455 26.9755C445.799 25.9355 444.847 25.4155 443.599 25.4155C442.367 25.4155 441.415 25.9355 440.743 26.9755C440.087 28.0155 439.759 29.5035 439.759 31.4395C439.759 33.3755 440.087 34.8635 440.743 35.9035C441.415 36.9435 442.367 37.4635 443.599 37.4635Z" fill="#5E2C8B"/>
<path d="M318.732 71.6716C319.731 71.6716 320.58 72.0263 321.28 72.7356C321.989 73.4449 322.344 74.3129 322.344 75.3396C322.344 76.3663 321.989 77.2343 321.28 77.9436C320.58 78.6529 319.731 79.0076 318.732 79.0076C317.491 79.0076 316.548 78.4943 315.904 77.4676V78.8396H314.98V69.0396H315.904V73.2116C316.548 72.1849 317.491 71.6716 318.732 71.6716ZM316.702 77.3136C317.234 77.8456 317.887 78.1116 318.662 78.1116C319.437 78.1116 320.09 77.8456 320.622 77.3136C321.154 76.7723 321.42 76.1143 321.42 75.3396C321.42 74.5649 321.154 73.9116 320.622 73.3796C320.09 72.8383 319.437 72.5676 318.662 72.5676C317.887 72.5676 317.234 72.8383 316.702 73.3796C316.17 73.9116 315.904 74.5649 315.904 75.3396C315.904 76.1143 316.17 76.7723 316.702 77.3136ZM328.647 71.8396H329.627L326.631 79.4836C326.36 80.1743 325.973 80.7156 325.469 81.1076C324.974 81.5089 324.419 81.6863 323.803 81.6396V80.7716C324.643 80.8649 325.282 80.3796 325.721 79.3156L325.903 78.8816L322.767 71.8396H323.747L326.379 77.7056L328.647 71.8396ZM337.464 79.0076C336.568 79.0076 335.798 78.7976 335.154 78.3776C334.519 77.9483 334.076 77.3603 333.824 76.6136L334.664 76.1236C334.841 76.7303 335.168 77.2063 335.644 77.5516C336.12 77.8876 336.731 78.0556 337.478 78.0556C338.206 78.0556 338.77 77.8969 339.172 77.5796C339.582 77.2529 339.788 76.8236 339.788 76.2916C339.788 75.7783 339.601 75.3909 339.228 75.1296C338.854 74.8683 338.238 74.5976 337.38 74.3176C336.362 73.9816 335.69 73.7109 335.364 73.5056C334.617 73.0576 334.244 72.4089 334.244 71.5596C334.244 70.7289 334.533 70.0756 335.112 69.5996C335.69 69.1143 336.404 68.8716 337.254 68.8716C338.019 68.8716 338.682 69.0723 339.242 69.4736C339.802 69.8656 340.217 70.3696 340.488 70.9856L339.662 71.4476C339.214 70.3649 338.411 69.8236 337.254 69.8236C336.647 69.8236 336.157 69.9729 335.784 70.2716C335.41 70.5703 335.224 70.9856 335.224 71.5176C335.224 72.0029 335.392 72.3669 335.728 72.6096C336.064 72.8523 336.619 73.0996 337.394 73.3516C337.748 73.4729 338 73.5616 338.15 73.6176C338.308 73.6643 338.532 73.7483 338.822 73.8696C339.12 73.9816 339.34 74.0843 339.48 74.1776C339.62 74.2616 339.788 74.3829 339.984 74.5416C340.189 74.6909 340.334 74.8449 340.418 75.0036C340.511 75.1529 340.59 75.3396 340.656 75.5636C340.73 75.7783 340.768 76.0116 340.768 76.2636C340.768 77.0943 340.464 77.7616 339.858 78.2656C339.251 78.7603 338.453 79.0076 337.464 79.0076ZM345.586 71.6716C346.435 71.6716 347.103 71.9329 347.588 72.4556C348.083 72.9689 348.33 73.6643 348.33 74.5416V78.8396H347.406V74.5416C347.406 73.9163 347.238 73.4309 346.902 73.0856C346.575 72.7403 346.109 72.5676 345.502 72.5676C344.83 72.5676 344.284 72.7823 343.864 73.2116C343.444 73.6316 343.234 74.2849 343.234 75.1716V78.8396H342.31V69.0396H343.234V72.9316C343.757 72.0916 344.541 71.6716 345.586 71.6716ZM355.045 71.8396H355.969V78.8396H355.045V77.7476C354.522 78.5876 353.738 79.0076 352.693 79.0076C351.843 79.0076 351.171 78.7509 350.677 78.2376C350.191 77.7149 349.949 77.0149 349.949 76.1376V71.8396H350.873V76.1376C350.873 76.7629 351.036 77.2483 351.363 77.5936C351.699 77.9389 352.17 78.1116 352.777 78.1116C353.449 78.1116 353.995 77.9016 354.415 77.4816C354.835 77.0523 355.045 76.3943 355.045 75.5076V71.8396ZM361.675 71.6716C362.674 71.6716 363.523 72.0263 364.223 72.7356C364.933 73.4449 365.287 74.3129 365.287 75.3396C365.287 76.3663 364.933 77.2343 364.223 77.9436C363.523 78.6529 362.674 79.0076 361.675 79.0076C360.434 79.0076 359.491 78.4943 358.847 77.4676V78.8396H357.923V69.0396H358.847V73.2116C359.491 72.1849 360.434 71.6716 361.675 71.6716ZM359.645 77.3136C360.177 77.8456 360.831 78.1116 361.605 78.1116C362.38 78.1116 363.033 77.8456 363.565 77.3136C364.097 76.7723 364.363 76.1143 364.363 75.3396C364.363 74.5649 364.097 73.9116 363.565 73.3796C363.033 72.8383 362.38 72.5676 361.605 72.5676C360.831 72.5676 360.177 72.8383 359.645 73.3796C359.113 73.9116 358.847 74.5649 358.847 75.3396C358.847 76.1143 359.113 76.7723 359.645 77.3136ZM370.1 71.6716C370.949 71.6716 371.616 71.9329 372.102 72.4556C372.596 72.9689 372.844 73.6643 372.844 74.5416V78.8396H371.92V74.5416C371.92 73.9163 371.752 73.4309 371.416 73.0856C371.089 72.7403 370.622 72.5676 370.016 72.5676C369.344 72.5676 368.798 72.7823 368.378 73.2116C367.958 73.6316 367.748 74.2849 367.748 75.1716V78.8396H366.824V69.0396H367.748V72.9316C368.27 72.0916 369.054 71.6716 370.1 71.6716ZM380.65 71.8396H381.574V78.8396H380.65V77.4676C380.006 78.4943 379.064 79.0076 377.822 79.0076C376.824 79.0076 375.97 78.6529 375.26 77.9436C374.56 77.2343 374.21 76.3663 374.21 75.3396C374.21 74.3129 374.56 73.4449 375.26 72.7356C375.97 72.0263 376.824 71.6716 377.822 71.6716C379.064 71.6716 380.006 72.1849 380.65 73.2116V71.8396ZM375.932 77.3136C376.464 77.8456 377.118 78.1116 377.892 78.1116C378.667 78.1116 379.32 77.8456 379.852 77.3136C380.384 76.7723 380.65 76.1143 380.65 75.3396C380.65 74.5649 380.384 73.9116 379.852 73.3796C379.32 72.8383 378.667 72.5676 377.892 72.5676C377.118 72.5676 376.464 72.8383 375.932 73.3796C375.4 73.9116 375.134 74.5649 375.134 75.3396C375.134 76.1143 375.4 76.7723 375.932 77.3136ZM390.993 71.6716C391.777 71.6716 392.407 71.9236 392.883 72.4276C393.368 72.9316 393.611 73.6129 393.611 74.4716V78.8396H392.687V74.4716C392.687 73.8649 392.528 73.3983 392.211 73.0716C391.903 72.7356 391.492 72.5676 390.979 72.5676C390.4 72.5676 389.929 72.7636 389.565 73.1556C389.21 73.5383 389.033 74.1403 389.033 74.9616V78.8396H388.109V74.4716C388.109 73.8556 387.959 73.3843 387.661 73.0576C387.371 72.7309 386.975 72.5676 386.471 72.5676C385.911 72.5676 385.435 72.7636 385.043 73.1556C384.651 73.5476 384.455 74.1496 384.455 74.9616V78.8396H383.531V71.8396H384.455V72.8616C384.959 72.0683 385.673 71.6716 386.597 71.6716C387.605 71.6716 388.314 72.0963 388.725 72.9456C389.229 72.0963 389.985 71.6716 390.993 71.6716Z" fill="white"/>
<defs>
<radialGradient id="paint0_radial_69_91" cx="0" cy="0" r="1" gradientUnits="userSpaceOnUse" gradientTransform="translate(32.8827 24.6617) rotate(83.9667) scale(63.5476 48.1421)">
<stop stop-color="#8B53AE"/>
<stop offset="0.38647" stop-color="#5B2A86"/>
<stop offset="0.95851" stop-color="#190C25"/>
</radialGradient>
<radialGradient id="paint1_radial_69_91" cx="0" cy="0" r="1" gradientUnits="userSpaceOnUse" gradientTransform="translate(36.4794 76.2496) scale(36.4789 8.42979)">
<stop stop-color="#2E083B"/>
<stop offset="0.742587" stop-color="#6A2C91"/>
</radialGradient>
<linearGradient id="paint2_linear_69_91" x1="1.93128" y1="48.0825" x2="73.2272" y2="25.8437" gradientUnits="userSpaceOnUse">
<stop stop-color="#2E083B"/>
<stop offset="0.110577" stop-color="#6A2C91"/>
<stop offset="0.294579" stop-color="white"/>
<stop offset="0.668311" stop-color="white"/>
<stop offset="0.846154" stop-color="#6A2C91"/>
<stop offset="1" stop-color="#2E083B"/>
</linearGradient>
</defs>
</svg>
