<svg width="464" height="85" viewBox="0 0 464 85" fill="none" xmlns="http://www.w3.org/2000/svg">
<path d="M62.6823 42.3304C62.6823 56.4078 51.1808 67.8197 36.993 67.8197C22.8052 67.8197 11.3037 56.4078 11.3037 42.3304C11.3037 30.8615 28.3548 9.9836 34.6738 2.64022C35.4388 1.75117 35.8213 1.30664 36.3183 1.12855C36.7404 0.977298 37.2456 0.977298 37.6677 1.12855C38.1647 1.30664 38.5472 1.75117 39.3122 2.64022C45.6312 9.9836 62.6823 30.8615 62.6823 42.3304Z" fill="url(#paint0_radial_48_133)"/>
<path d="M62.0895 69.3203C62.1879 69.1847 62.3023 69.253 62.4059 69.2803C64.6657 69.8741 66.9465 70.4015 69.0778 71.4004C70.0905 71.875 71.052 72.4342 71.861 73.2129C73.0723 74.3789 73.2898 75.73 72.4684 76.9219C72.2528 77.2348 71.9701 77.5019 71.6872 77.8164C69.7742 79.4458 67.5042 80.2845 65.2136 81.0557C62.5048 81.9676 59.7189 82.599 56.902 83.0664C53.7306 83.5926 50.5414 83.9773 47.3347 84.248C42.3621 84.6678 37.384 84.7361 32.4011 84.6426C28.6655 84.5724 24.9394 84.3243 21.2311 83.8642C15.9774 83.2124 10.7801 82.2877 5.80731 80.3926C4.22879 79.791 2.70906 79.0565 1.39715 77.958C1.10109 77.7101 0.836065 77.4355 0.613949 77.1201C-0.273094 75.8603 -0.200057 74.6641 0.845394 73.5166C2.19661 72.0337 3.98985 71.2926 5.80828 70.6123C7.17265 70.1019 8.58592 69.745 9.99969 69.3975C10.1796 69.3532 10.3607 69.2519 10.5944 69.3877C10.3787 69.6199 10.0848 69.6368 9.83368 69.7246C8.52761 70.1813 7.25024 70.6946 6.10907 71.498C5.72935 71.7654 5.39496 72.0789 5.10614 72.4394C4.33577 73.4012 4.36472 74.4322 5.18719 75.3545C6.01099 76.2781 7.07534 76.8415 8.1784 77.3496C11.0018 78.6502 13.9992 79.3719 17.0261 79.9795C19.881 80.5525 22.7666 80.9191 25.6686 81.167C29.9687 81.5343 34.2773 81.7038 38.5895 81.5908C42.303 81.4934 46.0127 81.2935 49.7077 80.8447C53.5725 80.3753 57.405 79.7708 61.1384 78.6406C63.1416 78.0342 65.1166 77.354 66.8503 76.1308C67.2272 75.8649 67.585 75.5751 67.8698 75.208C68.6454 74.208 68.6115 73.3197 67.7663 72.3711C67.0218 71.5356 66.0619 71.0135 65.071 70.5449C64.2561 70.1595 63.413 69.8425 62.5436 69.5976C62.372 69.5493 62.1568 69.5454 62.0895 69.3203ZM52.7702 68.9414C52.9368 68.8034 53.0948 68.8452 53.237 68.8838C55.0838 69.3852 56.9769 69.7365 58.7292 70.5478C59.3567 70.8384 59.9618 71.1719 60.487 71.6289C61.5214 72.5289 61.5621 73.5595 60.5651 74.4902C59.4254 75.5541 57.9827 76.0602 56.5368 76.5058C52.6747 77.6961 48.6986 78.2518 44.6813 78.5976C41.2587 78.8923 37.833 78.9683 34.402 78.9267C29.8359 78.8715 25.2973 78.5175 20.7575 77.6504C18.7894 77.2649 16.8957 76.7928 15.0729 76.0664C14.1592 75.7022 13.2914 75.2631 12.5378 74.6211C11.5173 73.7517 11.4622 72.6813 12.4186 71.7422C13.1864 70.9883 14.153 70.5591 15.1374 70.1689C16.4957 69.6306 17.9193 69.3169 19.3278 68.9521C19.4137 68.9299 19.5104 68.9492 19.6686 68.9492C19.5144 69.2514 19.2499 69.2645 19.0407 69.3291C18.2632 69.5693 17.5475 69.9105 16.9138 70.4336C15.9113 71.2609 15.9019 72.2204 16.944 73.0117C17.9839 73.8012 19.2014 74.2276 20.4343 74.5947C23.2928 75.4459 26.2315 75.8415 29.1931 76.1094C32.6363 76.4208 36.0877 76.4428 39.5358 76.3144C43.7523 76.1575 47.9468 75.7618 52.029 74.6035C53.3014 74.2425 54.5648 73.835 55.6618 73.0586C56.8254 72.235 56.8438 71.2954 55.7292 70.3975C55.0791 69.8738 54.3496 69.5029 53.5495 69.2627C53.2874 69.184 52.9935 69.156 52.7702 68.9414ZM40.7624 67.8203C43.3684 67.9765 45.9264 68.1563 48.4157 68.8457C49.029 69.0156 49.61 69.2674 50.1598 69.582C51.3162 70.2439 51.3194 71.2482 50.1657 71.9199C48.9878 72.6056 47.6765 72.9098 46.3591 73.1601C43.7972 73.647 41.2124 73.9206 38.6013 73.9932C36.2618 74.0582 33.9273 74.0368 31.5954 73.8584C29.0719 73.6653 26.5696 73.3311 24.1432 72.5703C23.556 72.3862 22.9903 72.1478 22.4889 71.7842C21.5719 71.1188 21.5961 70.2281 22.5485 69.6006C23.2631 69.1298 24.067 68.8635 24.8893 68.6738C27.022 68.182 29.1993 68.0126 31.3737 67.832C31.5375 67.8184 31.7196 67.7783 31.9431 67.9883C31.3739 68.1683 30.8312 68.153 30.3073 68.2207C28.8799 68.405 27.4629 68.6282 26.1462 69.2519C25.9233 69.3575 25.699 69.4821 25.5143 69.6426C25.1481 69.9608 25.1564 70.3571 25.5241 70.6767C25.8627 70.9708 26.2818 71.1232 26.697 71.2715C28.4809 71.9085 30.3469 72.1125 32.2145 72.2978C34.3556 72.5103 36.5055 72.4898 38.6481 72.3955C41.1355 72.2861 43.612 72.0197 45.9997 71.2422C46.3071 71.1421 46.6144 71.0135 46.8893 70.8457C47.6797 70.3631 47.6677 69.8482 46.86 69.4121C46.371 69.1481 45.8558 68.9412 45.3132 68.8027C43.8802 68.4369 42.4243 68.2198 40.9509 68.1103C40.7885 68.0984 40.5995 68.1371 40.4948 67.9512C40.5188 67.814 40.633 67.8435 40.7624 67.8203Z" fill="url(#paint1_radial_48_133)"/>
<path d="M53.1315 20.5978C63.8362 20.1948 71.6029 22.4306 72.8317 27.0148C74.7475 34.1646 60.0349 44.3198 39.9694 49.6964C19.9038 55.073 2.08379 53.6352 0.167662 46.4855C-1.07582 41.8434 4.6903 35.935 14.3796 30.8898C14.1491 31.3619 13.9282 31.8309 13.7175 32.296C6.43478 36.3756 2.23572 40.8375 3.17352 44.338C4.781 50.3343 20.8537 51.2377 39.0739 46.3556C57.294 41.4735 70.7618 32.655 69.1559 26.6584C68.2078 23.1198 62.2226 21.3545 53.7311 21.505C53.5325 21.202 53.3329 20.8994 53.1315 20.5978Z" fill="url(#paint2_linear_48_133)"/>
<path d="M28.8117 19.3627C28.2518 20.3324 27.326 20.8461 26.7438 20.5099C26.1616 20.1738 26.1435 19.1152 26.7034 18.1455C27.2633 17.1757 33.9102 9.07292 33.9102 9.07292C33.9102 9.07292 29.3716 18.3929 28.8117 19.3627Z" fill="#FDFDFD"/>
<path d="M146.664 57.8396L143.528 48.8156H124.456L121.32 57.8396H113.32L129.576 13.0396H138.408L154.6 57.8396H146.664ZM126.888 41.9036H141.096L133.992 21.6796L126.888 41.9036ZM180.941 25.8396H187.853V70.6396H180.941V53.2956C178.338 56.8796 174.605 58.6716 169.741 58.6716C165.346 58.6716 161.591 57.0503 158.477 53.8076C155.362 50.5649 153.805 46.5756 153.805 41.8396C153.805 37.1463 155.362 33.1783 158.477 29.9356C161.591 26.6503 165.346 25.0076 169.741 25.0076C174.605 25.0076 178.338 26.8209 180.941 30.4476V25.8396ZM163.597 49.1996C165.517 51.1196 167.927 52.0796 170.829 52.0796C173.73 52.0796 176.141 51.1196 178.061 49.1996C179.981 47.2369 180.941 44.7836 180.941 41.8396C180.941 38.8956 179.981 36.4636 178.061 34.5436C176.141 32.5809 173.73 31.5996 170.829 31.5996C167.927 31.5996 165.517 32.5809 163.597 34.5436C161.677 36.4636 160.717 38.8956 160.717 41.8396C160.717 44.7836 161.677 47.2369 163.597 49.1996ZM214.917 25.8396H221.829V57.8396H214.917V53.7436C212.826 57.0289 209.52 58.6716 204.997 58.6716C201.328 58.6716 198.362 57.4983 196.101 55.1516C193.84 52.8049 192.709 49.5836 192.709 45.4876V25.8396H199.621V44.7836C199.621 47.1729 200.261 49.0076 201.541 50.2876C202.821 51.5676 204.57 52.2076 206.789 52.2076C209.221 52.2076 211.184 51.4609 212.677 49.9676C214.17 48.4316 214.917 46.1063 214.917 42.9916V25.8396ZM252.696 25.8396H259.608V57.8396H252.696V53.2316C250.093 56.8583 246.36 58.6716 241.496 58.6716C237.101 58.6716 233.346 57.0503 230.232 53.8076C227.117 50.5223 225.56 46.5329 225.56 41.8396C225.56 37.1036 227.117 33.1143 230.232 29.8716C233.346 26.6289 237.101 25.0076 241.496 25.0076C246.36 25.0076 250.093 26.7996 252.696 30.3836V25.8396ZM235.352 49.1996C237.272 51.1196 239.682 52.0796 242.584 52.0796C245.485 52.0796 247.896 51.1196 249.816 49.1996C251.736 47.2369 252.696 44.7836 252.696 41.8396C252.696 38.8956 251.736 36.4636 249.816 34.5436C247.896 32.5809 245.485 31.5996 242.584 31.5996C239.682 31.5996 237.272 32.5809 235.352 34.5436C233.432 36.4636 232.472 38.8956 232.472 41.8396C232.472 44.7836 233.432 47.2369 235.352 49.1996ZM286.736 58.6716C279.995 58.6716 274.405 56.4529 269.968 52.0156C265.531 47.5356 263.312 42.0103 263.312 35.4396C263.312 28.8689 265.531 23.3649 269.968 18.9276C274.405 14.4476 279.995 12.2076 286.736 12.2076C290.789 12.2076 294.523 13.1676 297.936 15.0876C301.392 17.0076 304.08 19.6103 306 22.8956L299.6 26.6076C298.405 24.3889 296.656 22.6396 294.352 21.3596C292.091 20.0369 289.552 19.3756 286.736 19.3756C281.957 19.3756 278.075 20.8903 275.088 23.9196C272.144 26.9489 270.672 30.7889 270.672 35.4396C270.672 40.0903 272.144 43.9303 275.088 46.9596C278.075 49.9889 281.957 51.5036 286.736 51.5036C289.552 51.5036 292.112 50.8636 294.416 49.5836C296.72 48.2609 298.448 46.4903 299.6 44.2716L306 47.9196C304.123 51.2049 301.456 53.8289 298 55.7916C294.587 57.7116 290.832 58.6716 286.736 58.6716ZM334.388 25.8396H341.3V57.8396H334.388V53.2316C331.785 56.8583 328.052 58.6716 323.188 58.6716C318.793 58.6716 315.039 57.0503 311.924 53.8076C308.809 50.5223 307.252 46.5329 307.252 41.8396C307.252 37.1036 308.809 33.1143 311.924 29.8716C315.039 26.6289 318.793 25.0076 323.188 25.0076C328.052 25.0076 331.785 26.7996 334.388 30.3836V25.8396ZM317.044 49.1996C318.964 51.1196 321.375 52.0796 324.276 52.0796C327.177 52.0796 329.588 51.1196 331.508 49.1996C333.428 47.2369 334.388 44.7836 334.388 41.8396C334.388 38.8956 333.428 36.4636 331.508 34.5436C329.588 32.5809 327.177 31.5996 324.276 31.5996C321.375 31.5996 318.964 32.5809 317.044 34.5436C315.124 36.4636 314.164 38.8956 314.164 41.8396C314.164 44.7836 315.124 47.2369 317.044 49.1996ZM353.709 31.2156C355.458 27.2476 358.743 25.2636 363.565 25.2636V32.7516C360.919 32.5809 358.615 33.2209 356.653 34.6716C354.69 36.0796 353.709 38.4263 353.709 41.7116V57.8396H346.797V25.8396H353.709V31.2156ZM370.052 44.7836C370.564 47.2156 371.737 49.0929 373.572 50.4156C375.406 51.6956 377.646 52.3356 380.292 52.3356C383.961 52.3356 386.713 51.0129 388.548 48.3676L394.244 51.6956C391.086 56.3463 386.414 58.6716 380.228 58.6716C375.022 58.6716 370.82 57.0929 367.62 53.9356C364.42 50.7356 362.82 46.7036 362.82 41.8396C362.82 37.0609 364.398 33.0716 367.556 29.8716C370.713 26.6289 374.766 25.0076 379.716 25.0076C384.409 25.0076 388.249 26.6503 391.236 29.9356C394.265 33.2209 395.78 37.2103 395.78 41.9036C395.78 42.6289 395.694 43.5889 395.524 44.7836H370.052ZM369.988 39.1516H388.804C388.334 36.5489 387.246 34.5863 385.54 33.2636C383.876 31.9409 381.913 31.2796 379.652 31.2796C377.092 31.2796 374.958 31.9836 373.252 33.3916C371.545 34.7996 370.457 36.7196 369.988 39.1516Z" fill="#5E2C8B"/>
<rect x="399.5" y="13.3396" width="63" height="36" rx="18" stroke="#5E2C8B" stroke-width="3"/>
<path d="M418.016 29.9036C419.232 30.1916 420.216 30.7596 420.968 31.6076C421.736 32.4396 422.12 33.4876 422.12 34.7516C422.12 36.4316 421.552 37.7516 420.416 38.7116C419.28 39.6716 417.888 40.1516 416.24 40.1516C414.96 40.1516 413.808 39.8556 412.784 39.2636C411.776 38.6716 411.048 37.8076 410.6 36.6716L412.952 35.3036C413.448 36.7436 414.544 37.4636 416.24 37.4636C417.2 37.4636 417.96 37.2236 418.52 36.7436C419.08 36.2476 419.36 35.5836 419.36 34.7516C419.36 33.9196 419.08 33.2636 418.52 32.7836C417.96 32.3036 417.2 32.0636 416.24 32.0636H415.616L414.512 30.4076L418.136 25.6316H411.104V23.0396H421.424V25.3916L418.016 29.9036ZM429.512 28.6796C431.256 28.6796 432.68 29.2156 433.784 30.2876C434.888 31.3436 435.44 32.7196 435.44 34.4156C435.44 36.1116 434.888 37.4956 433.784 38.5676C432.68 39.6236 431.256 40.1516 429.512 40.1516C427.752 40.1516 426.32 39.6236 425.216 38.5676C424.112 37.4956 423.56 36.1116 423.56 34.4156C423.56 33.1356 423.896 32.0076 424.568 31.0316L429.896 23.0396H433.04L429.2 28.6796H429.512ZM429.512 37.5356C430.44 37.5356 431.2 37.2556 431.792 36.6956C432.384 36.1196 432.68 35.3596 432.68 34.4156C432.68 33.4716 432.384 32.7196 431.792 32.1596C431.2 31.5836 430.44 31.2956 429.512 31.2956C428.568 31.2956 427.8 31.5836 427.208 32.1596C426.616 32.7196 426.32 33.4716 426.32 34.4156C426.32 35.3596 426.616 36.1196 427.208 36.6956C427.8 37.2556 428.568 37.5356 429.512 37.5356ZM448.447 37.7756C447.295 39.3596 445.679 40.1516 443.599 40.1516C441.519 40.1516 439.895 39.3596 438.727 37.7756C437.575 36.1916 436.999 34.0796 436.999 31.4396C436.999 28.7996 437.575 26.6876 438.727 25.1036C439.895 23.5196 441.519 22.7276 443.599 22.7276C445.679 22.7276 447.295 23.5196 448.447 25.1036C449.615 26.6876 450.199 28.7996 450.199 31.4396C450.199 34.0796 449.615 36.1916 448.447 37.7756ZM443.599 37.4636C444.847 37.4636 445.799 36.9436 446.455 35.9036C447.111 34.8636 447.439 33.3756 447.439 31.4396C447.439 29.5036 447.111 28.0156 446.455 26.9756C445.799 25.9356 444.847 25.4156 443.599 25.4156C442.367 25.4156 441.415 25.9356 440.743 26.9756C440.087 28.0156 439.759 29.5036 439.759 31.4396C439.759 33.3756 440.087 34.8636 440.743 35.9036C441.415 36.9436 442.367 37.4636 443.599 37.4636Z" fill="#5E2C8B"/>
<path d="M318.732 71.6716C319.731 71.6716 320.58 72.0263 321.28 72.7356C321.989 73.4449 322.344 74.3129 322.344 75.3396C322.344 76.3663 321.989 77.2343 321.28 77.9436C320.58 78.6529 319.731 79.0076 318.732 79.0076C317.491 79.0076 316.548 78.4943 315.904 77.4676V78.8396H314.98V69.0396H315.904V73.2116C316.548 72.1849 317.491 71.6716 318.732 71.6716ZM316.702 77.3136C317.234 77.8456 317.887 78.1116 318.662 78.1116C319.437 78.1116 320.09 77.8456 320.622 77.3136C321.154 76.7723 321.42 76.1143 321.42 75.3396C321.42 74.5649 321.154 73.9116 320.622 73.3796C320.09 72.8383 319.437 72.5676 318.662 72.5676C317.887 72.5676 317.234 72.8383 316.702 73.3796C316.17 73.9116 315.904 74.5649 315.904 75.3396C315.904 76.1143 316.17 76.7723 316.702 77.3136ZM328.647 71.8396H329.627L326.631 79.4836C326.36 80.1743 325.973 80.7156 325.469 81.1076C324.974 81.5089 324.419 81.6863 323.803 81.6396V80.7716C324.643 80.8649 325.282 80.3796 325.721 79.3156L325.903 78.8816L322.767 71.8396H323.747L326.379 77.7056L328.647 71.8396ZM337.464 79.0076C336.568 79.0076 335.798 78.7976 335.154 78.3776C334.519 77.9483 334.076 77.3603 333.824 76.6136L334.664 76.1236C334.841 76.7303 335.168 77.2063 335.644 77.5516C336.12 77.8876 336.731 78.0556 337.478 78.0556C338.206 78.0556 338.77 77.8969 339.172 77.5796C339.582 77.2529 339.788 76.8236 339.788 76.2916C339.788 75.7783 339.601 75.3909 339.228 75.1296C338.854 74.8683 338.238 74.5976 337.38 74.3176C336.362 73.9816 335.69 73.7109 335.364 73.5056C334.617 73.0576 334.244 72.4089 334.244 71.5596C334.244 70.7289 334.533 70.0756 335.112 69.5996C335.69 69.1143 336.404 68.8716 337.254 68.8716C338.019 68.8716 338.682 69.0723 339.242 69.4736C339.802 69.8656 340.217 70.3696 340.488 70.9856L339.662 71.4476C339.214 70.3649 338.411 69.8236 337.254 69.8236C336.647 69.8236 336.157 69.9729 335.784 70.2716C335.41 70.5703 335.224 70.9856 335.224 71.5176C335.224 72.0029 335.392 72.3669 335.728 72.6096C336.064 72.8523 336.619 73.0996 337.394 73.3516C337.748 73.4729 338 73.5616 338.15 73.6176C338.308 73.6643 338.532 73.7483 338.822 73.8696C339.12 73.9816 339.34 74.0843 339.48 74.1776C339.62 74.2616 339.788 74.3829 339.984 74.5416C340.189 74.6909 340.334 74.8449 340.418 75.0036C340.511 75.1529 340.59 75.3396 340.656 75.5636C340.73 75.7783 340.768 76.0116 340.768 76.2636C340.768 77.0943 340.464 77.7616 339.858 78.2656C339.251 78.7603 338.453 79.0076 337.464 79.0076ZM345.586 71.6716C346.435 71.6716 347.103 71.9329 347.588 72.4556C348.083 72.9689 348.33 73.6643 348.33 74.5416V78.8396H347.406V74.5416C347.406 73.9163 347.238 73.4309 346.902 73.0856C346.575 72.7403 346.109 72.5676 345.502 72.5676C344.83 72.5676 344.284 72.7823 343.864 73.2116C343.444 73.6316 343.234 74.2849 343.234 75.1716V78.8396H342.31V69.0396H343.234V72.9316C343.757 72.0916 344.541 71.6716 345.586 71.6716ZM355.045 71.8396H355.969V78.8396H355.045V77.7476C354.522 78.5876 353.738 79.0076 352.693 79.0076C351.843 79.0076 351.171 78.7509 350.677 78.2376C350.191 77.7149 349.949 77.0149 349.949 76.1376V71.8396H350.873V76.1376C350.873 76.7629 351.036 77.2483 351.363 77.5936C351.699 77.9389 352.17 78.1116 352.777 78.1116C353.449 78.1116 353.995 77.9016 354.415 77.4816C354.835 77.0523 355.045 76.3943 355.045 75.5076V71.8396ZM361.675 71.6716C362.674 71.6716 363.523 72.0263 364.223 72.7356C364.933 73.4449 365.287 74.3129 365.287 75.3396C365.287 76.3663 364.933 77.2343 364.223 77.9436C363.523 78.6529 362.674 79.0076 361.675 79.0076C360.434 79.0076 359.491 78.4943 358.847 77.4676V78.8396H357.923V69.0396H358.847V73.2116C359.491 72.1849 360.434 71.6716 361.675 71.6716ZM359.645 77.3136C360.177 77.8456 360.831 78.1116 361.605 78.1116C362.38 78.1116 363.033 77.8456 363.565 77.3136C364.097 76.7723 364.363 76.1143 364.363 75.3396C364.363 74.5649 364.097 73.9116 363.565 73.3796C363.033 72.8383 362.38 72.5676 361.605 72.5676C360.831 72.5676 360.177 72.8383 359.645 73.3796C359.113 73.9116 358.847 74.5649 358.847 75.3396C358.847 76.1143 359.113 76.7723 359.645 77.3136ZM370.1 71.6716C370.949 71.6716 371.616 71.9329 372.102 72.4556C372.596 72.9689 372.844 73.6643 372.844 74.5416V78.8396H371.92V74.5416C371.92 73.9163 371.752 73.4309 371.416 73.0856C371.089 72.7403 370.622 72.5676 370.016 72.5676C369.344 72.5676 368.798 72.7823 368.378 73.2116C367.958 73.6316 367.748 74.2849 367.748 75.1716V78.8396H366.824V69.0396H367.748V72.9316C368.27 72.0916 369.054 71.6716 370.1 71.6716ZM380.65 71.8396H381.574V78.8396H380.65V77.4676C380.006 78.4943 379.064 79.0076 377.822 79.0076C376.824 79.0076 375.97 78.6529 375.26 77.9436C374.56 77.2343 374.21 76.3663 374.21 75.3396C374.21 74.3129 374.56 73.4449 375.26 72.7356C375.97 72.0263 376.824 71.6716 377.822 71.6716C379.064 71.6716 380.006 72.1849 380.65 73.2116V71.8396ZM375.932 77.3136C376.464 77.8456 377.118 78.1116 377.892 78.1116C378.667 78.1116 379.32 77.8456 379.852 77.3136C380.384 76.7723 380.65 76.1143 380.65 75.3396C380.65 74.5649 380.384 73.9116 379.852 73.3796C379.32 72.8383 378.667 72.5676 377.892 72.5676C377.118 72.5676 376.464 72.8383 375.932 73.3796C375.4 73.9116 375.134 74.5649 375.134 75.3396C375.134 76.1143 375.4 76.7723 375.932 77.3136ZM390.993 71.6716C391.777 71.6716 392.407 71.9236 392.883 72.4276C393.368 72.9316 393.611 73.6129 393.611 74.4716V78.8396H392.687V74.4716C392.687 73.8649 392.528 73.3983 392.211 73.0716C391.903 72.7356 391.492 72.5676 390.979 72.5676C390.4 72.5676 389.929 72.7636 389.565 73.1556C389.21 73.5383 389.033 74.1403 389.033 74.9616V78.8396H388.109V74.4716C388.109 73.8556 387.959 73.3843 387.661 73.0576C387.371 72.7309 386.975 72.5676 386.471 72.5676C385.911 72.5676 385.435 72.7636 385.043 73.1556C384.651 73.5476 384.455 74.1496 384.455 74.9616V78.8396H383.531V71.8396H384.455V72.8616C384.959 72.0683 385.673 71.6716 386.597 71.6716C387.605 71.6716 388.314 72.0963 388.725 72.9456C389.229 72.0963 389.985 71.6716 390.993 71.6716Z" fill="#222222"/>
<defs>
<radialGradient id="paint0_radial_48_133" cx="0" cy="0" r="1" gradientUnits="userSpaceOnUse" gradientTransform="translate(32.8827 24.6617) rotate(83.9667) scale(63.5476 48.1421)">
<stop stop-color="#8B53AE"/>
<stop offset="0.38647" stop-color="#5B2A86"/>
<stop offset="0.95851" stop-color="#190C25"/>
</radialGradient>
<radialGradient id="paint1_radial_48_133" cx="0" cy="0" r="1" gradientUnits="userSpaceOnUse" gradientTransform="translate(36.4794 76.2496) scale(36.4789 8.42979)">
<stop stop-color="#2E083B"/>
<stop offset="0.742587" stop-color="#6A2C91"/>
</radialGradient>
<linearGradient id="paint2_linear_48_133" x1="1.93128" y1="48.0825" x2="73.2272" y2="25.8437" gradientUnits="userSpaceOnUse">
<stop stop-color="#2E083B"/>
<stop offset="0.110577" stop-color="#6A2C91"/>
<stop offset="0.294579" stop-color="white"/>
<stop offset="0.668311" stop-color="white"/>
<stop offset="0.846154" stop-color="#6A2C91"/>
<stop offset="1" stop-color="#2E083B"/>
</linearGradient>
</defs>
</svg>
