<svg width="140" height="140" viewBox="0 0 140 140" fill="none" xmlns="http://www.w3.org/2000/svg">
<rect width="140" height="140" rx="70" fill="white"/>
<path d="M102.14 65.7689C102.14 83.3176 87.8024 97.5437 70.1159 97.5437C52.4295 97.5437 38.0918 83.3176 38.0918 65.7689C38.0918 51.1075 60.4449 24.1113 67.8005 15.6247C68.5661 14.7414 68.9489 14.2997 69.4439 14.1231C69.8662 13.9725 70.3656 13.9725 70.7879 14.1231C71.283 14.2997 71.6658 14.7414 72.4314 15.6247C79.787 24.1113 102.14 51.1075 102.14 65.7689Z" fill="url(#paint0_radial_59_4)"/>
<path d="M101.401 99.4135C101.524 99.2449 101.667 99.3308 101.796 99.3647C104.613 100.105 107.456 100.762 110.113 102.007C111.376 102.599 112.573 103.296 113.582 104.267C115.092 105.721 115.364 107.404 114.34 108.89C114.071 109.28 113.719 109.613 113.366 110.005C110.981 112.037 108.151 113.082 105.296 114.043C101.919 115.18 98.4469 115.968 94.9355 116.55C90.9819 117.206 87.0054 117.685 83.0078 118.023C76.8091 118.546 70.6041 118.632 64.3925 118.515C59.7357 118.428 55.0906 118.118 50.4677 117.544C43.9184 116.732 37.4393 115.579 31.2402 113.216C29.2722 112.466 27.3776 111.551 25.7421 110.181C25.3731 109.872 25.0434 109.53 24.7665 109.137C23.6607 107.567 23.7521 106.075 25.0556 104.645C26.7399 102.797 28.9745 101.873 31.2412 101.025C32.9421 100.389 34.7042 99.9435 36.4667 99.5102C36.691 99.4551 36.9167 99.3292 37.208 99.4985C36.939 99.788 36.5727 99.809 36.2597 99.9184C34.6315 100.488 33.0388 101.128 31.6162 102.129C31.143 102.463 30.7261 102.853 30.3662 103.302C29.4059 104.501 29.4417 105.786 30.4667 106.936C31.4937 108.088 32.8211 108.79 34.1962 109.423C37.7159 111.045 41.4523 111.945 45.2255 112.703C48.7846 113.417 52.3822 113.873 55.9999 114.182C61.3605 114.64 66.7317 114.851 72.1074 114.71C76.7365 114.589 81.3606 114.34 85.9667 113.781C90.7846 113.196 95.5627 112.443 100.217 111.034C102.714 110.278 105.176 109.429 107.337 107.905C107.807 107.573 108.252 107.211 108.607 106.753C109.574 105.507 109.532 104.4 108.478 103.217C107.55 102.176 106.353 101.525 105.118 100.941C104.102 100.46 103.051 100.065 101.968 99.7602C101.754 99.6999 101.485 99.6947 101.401 99.4135ZM89.7831 98.9418C89.9911 98.7693 90.1888 98.8224 90.3662 98.8705C92.6685 99.4956 95.0284 99.9333 97.2128 100.945C97.9951 101.307 98.7495 101.723 99.4042 102.292C100.693 103.414 100.744 104.7 99.5009 105.86C98.0802 107.186 96.2827 107.817 94.4804 108.373C89.6658 109.856 84.7082 110.548 79.7001 110.979C75.4335 111.346 71.1637 111.441 66.8867 111.389C61.1943 111.32 55.5363 110.879 49.8769 109.798C47.4235 109.318 45.0632 108.73 42.791 107.825C41.6517 107.371 40.5694 106.822 39.6298 106.022C38.3581 104.938 38.2893 103.604 39.4814 102.433C40.4384 101.493 41.6439 100.959 42.871 100.473C44.5643 99.802 46.3388 99.4102 48.0947 98.9555C48.2017 98.9278 48.3223 98.9516 48.5195 98.9516C48.3273 99.3281 47.998 99.3447 47.7373 99.4252C46.7679 99.7248 45.875 100.15 45.0849 100.802C43.8354 101.834 43.8248 103.03 45.124 104.016C46.4201 105 47.9368 105.532 49.4736 105.99C53.0372 107.051 56.7013 107.543 60.3935 107.877C64.6858 108.266 68.9877 108.293 73.2861 108.133C78.5423 107.938 83.7714 107.444 88.8603 106C90.4464 105.55 92.0222 105.043 93.3896 104.075C94.8396 103.048 94.8619 101.877 93.4726 100.757C92.6623 100.105 91.7532 99.6427 90.7558 99.3432C90.4288 99.245 90.0616 99.2098 89.7831 98.9418ZM63.1113 97.559C63.3155 97.5421 63.5426 97.4916 63.8212 97.7534C63.1118 97.9777 62.4353 97.9591 61.7822 98.0434C60.0026 98.2732 58.2362 98.5519 56.5947 99.3295C56.3167 99.4612 56.0369 99.6158 55.8066 99.8159C55.3499 100.213 55.3615 100.707 55.8203 101.106C56.2422 101.472 56.7638 101.662 57.2812 101.847C59.5049 102.641 61.8311 102.895 64.1591 103.126C66.8281 103.391 69.5087 103.366 72.1796 103.248C75.2803 103.112 78.3673 102.779 81.3437 101.81C81.7269 101.685 82.1103 101.525 82.4531 101.316C83.4384 100.714 83.4238 100.072 82.4169 99.5288C81.8073 99.1996 81.1647 98.9426 80.4882 98.77C78.7019 98.3139 76.8875 98.0421 75.0507 97.9057C74.8483 97.8907 74.6129 97.9394 74.4824 97.7075C74.5123 97.5366 74.6542 97.5742 74.8154 97.5454C78.0641 97.74 81.2532 97.9632 84.3564 98.8227C85.1209 99.0344 85.8439 99.3485 86.5292 99.7407C87.9712 100.566 87.9763 101.817 86.538 102.655C85.0695 103.51 83.4345 103.889 81.7919 104.201C78.5983 104.807 75.3762 105.148 72.121 105.239C69.2047 105.32 66.2945 105.294 63.3876 105.072C60.242 104.831 57.1231 104.415 54.0986 103.466C53.3662 103.237 52.6602 102.939 52.0351 102.486C50.8919 101.656 50.9222 100.545 52.1093 99.7631C53.0002 99.1762 54.0031 98.8443 55.0283 98.6079C57.6867 97.9948 60.4008 97.7841 63.1113 97.559Z" fill="url(#paint1_radial_59_4)"/>
<path d="M90.2325 38.6769C103.579 38.1742 113.262 40.9626 114.793 46.6779C117.18 55.5908 98.8386 68.2489 73.8253 74.9513C48.8116 81.6537 26.5977 79.8621 24.2091 70.9493C22.6588 65.163 29.8458 57.7981 41.9229 51.5089C41.6357 52.0974 41.3604 52.682 41.0977 53.2618C32.0205 58.3473 26.786 63.9092 27.9552 68.2726C29.9586 75.7478 49.9965 76.8733 72.71 70.7872C95.4232 64.7012 112.212 53.7079 110.21 46.2326C109.028 41.8215 101.567 39.6212 90.9815 39.8087C90.7336 39.4305 90.4838 39.0532 90.2325 38.6769Z" fill="url(#paint2_linear_59_4)"/>
<path d="M59.9171 37.1376C59.2191 38.3465 58.065 38.9868 57.3392 38.5678C56.6135 38.1488 56.5909 36.8291 57.2889 35.6202C57.9868 34.4114 66.2729 24.3105 66.2729 24.3105C66.2729 24.3105 60.615 35.9288 59.9171 37.1376Z" fill="#FDFDFD"/>
<defs>
<radialGradient id="paint0_radial_59_4" cx="0" cy="0" r="1" gradientUnits="userSpaceOnUse" gradientTransform="translate(64.9921 43.7432) rotate(83.9667) scale(79.2182 60.0138)">
<stop stop-color="#8B53AE"/>
<stop offset="0.38647" stop-color="#5B2A86"/>
<stop offset="0.95851" stop-color="#190C25"/>
</radialGradient>
<radialGradient id="paint1_radial_59_4" cx="0" cy="0" r="1" gradientUnits="userSpaceOnUse" gradientTransform="translate(69.4761 108.052) scale(45.4741 10.5086)">
<stop stop-color="#2E083B"/>
<stop offset="0.742587" stop-color="#6A2C91"/>
</radialGradient>
<linearGradient id="paint2_linear_59_4" x1="26.4076" y1="72.9396" x2="115.286" y2="45.2165" gradientUnits="userSpaceOnUse">
<stop stop-color="#2E083B"/>
<stop offset="0.110577" stop-color="#6A2C91"/>
<stop offset="0.294579" stop-color="white"/>
<stop offset="0.668311" stop-color="white"/>
<stop offset="0.846154" stop-color="#6A2C91"/>
<stop offset="1" stop-color="#2E083B"/>
</linearGradient>
</defs>
</svg>
