<svg width="73" height="85" viewBox="0 0 73 85" fill="none" xmlns="http://www.w3.org/2000/svg">
<path d="M62.6818 42.3304C62.6818 56.4078 51.1803 67.8197 36.9925 67.8197C22.8047 67.8197 11.3032 56.4078 11.3032 42.3304C11.3032 30.8615 28.3543 9.9836 34.6733 2.64022C35.4383 1.75117 35.8208 1.30664 36.3178 1.12855C36.7399 0.977298 37.2451 0.977298 37.6672 1.12855C38.1642 1.30664 38.5467 1.75117 39.3117 2.64022C45.6307 9.9836 62.6818 30.8615 62.6818 42.3304Z" fill="url(#paint0_radial_51_134)"/>
<path d="M62.0891 69.3198C62.1875 69.1844 62.3019 69.2525 62.4055 69.2798C64.6653 69.8736 66.946 70.4019 69.0774 71.4008C70.0901 71.8755 71.0516 72.4347 71.8606 73.2133C73.0717 74.3793 73.2893 75.7305 72.468 76.9223C72.2525 77.235 71.9704 77.5017 71.6878 77.8159C69.7747 79.4454 67.5039 80.2839 65.2131 81.0551C62.5044 81.9671 59.7185 82.5985 56.9016 83.0659C53.7302 83.5921 50.541 83.9768 47.3342 84.2475C42.3618 84.6673 37.3844 84.7365 32.4016 84.643C28.666 84.5729 24.9391 84.3238 21.2307 83.8637C15.977 83.2119 10.7797 82.2873 5.8069 80.3921C4.22826 79.7904 2.70872 79.0561 1.39674 77.9575C1.1006 77.7095 0.835691 77.4351 0.613538 77.1196C-0.273445 75.8598 -0.199618 74.6636 0.84596 73.5161C2.19709 72.0335 3.98968 71.2929 5.80787 70.6128C7.17228 70.1023 8.58547 69.7445 9.99928 69.3969C10.1791 69.3527 10.3603 69.2523 10.594 69.3881C10.3782 69.6203 10.0843 69.6373 9.83326 69.7251C8.52721 70.1818 7.24982 70.6951 6.10866 71.4985C5.7291 71.7658 5.39446 72.0785 5.10573 72.4389C4.33537 73.4007 4.36433 74.4317 5.18678 75.354C6.01054 76.2777 7.07492 76.841 8.17799 77.3491C11.0014 78.6496 13.9988 79.3724 17.0256 79.9799C19.8806 80.553 22.7663 80.9186 25.6682 81.1665C29.9685 81.5338 34.2778 81.7034 38.5901 81.5903C42.3034 81.4929 46.0124 81.2929 49.7073 80.8442C53.5722 80.3748 57.4054 79.7713 61.1389 78.6411C63.142 78.0347 65.1163 77.3543 66.8499 76.1313C67.2269 75.8653 67.5846 75.5747 67.8694 75.2075C68.6449 74.2075 68.6112 73.3191 67.7659 72.3706C67.0214 71.5352 66.0614 71.013 65.0706 70.5444C64.2558 70.1591 63.4124 69.843 62.5432 69.5981C62.3714 69.5498 62.1562 69.5453 62.0891 69.3198ZM52.7698 68.9409C52.9363 68.803 53.0945 68.8457 53.2366 68.8842C55.0835 69.3857 56.9774 69.7369 58.7297 70.5483C59.357 70.8388 59.9616 71.1717 60.4866 71.6284C61.521 72.5284 61.5619 73.5599 60.5647 74.4907C59.4251 75.5544 57.9831 76.0608 56.5374 76.5063C52.6751 77.6966 48.6983 78.2513 44.6809 78.5971C41.2584 78.8917 37.8334 78.9677 34.4026 78.9262C29.8362 78.871 25.297 78.5171 20.7571 77.6499C18.7892 77.2645 16.8962 76.7932 15.0735 76.0669C14.1596 75.7027 13.2911 75.2636 12.5374 74.6215C11.5168 73.7521 11.4618 72.6808 12.4182 71.7417C13.1859 70.988 14.1527 70.5595 15.137 70.1694C16.4952 69.6311 17.9189 69.3173 19.3274 68.9526C19.4133 68.9304 19.51 68.9497 19.6682 68.9497C19.514 69.2515 19.2494 69.2649 19.0403 69.3296C18.263 69.5698 17.547 69.9102 16.9133 70.4331C15.9109 71.2604 15.9024 72.2199 16.9446 73.0112C17.9844 73.8006 19.201 74.2271 20.4339 74.5942C23.2926 75.4455 26.2318 75.8419 29.1936 76.1098C32.6367 76.4213 36.0875 76.4433 39.5354 76.3149C43.7518 76.158 47.9465 75.7622 52.0286 74.604C53.301 74.2429 54.5654 73.8355 55.6624 73.059C56.8258 72.2355 56.8435 71.2949 55.7288 70.3969C55.0787 69.8734 54.3492 69.5034 53.5491 69.2631C53.2869 69.1845 52.9931 69.1557 52.7698 68.9409ZM40.762 67.8208C43.3679 67.9769 45.9261 68.1558 48.4153 68.8452C49.0286 69.0151 49.6096 69.2669 50.1594 69.5815C51.316 70.2433 51.3197 71.2476 50.1663 71.9194C48.9882 72.6053 47.6763 72.9092 46.3587 73.1596C43.7967 73.6465 41.2121 73.9201 38.6008 73.9926C36.2614 74.0577 33.9268 74.0363 31.595 73.8579C29.0715 73.6648 26.5691 73.3315 24.1428 72.5708C23.5554 72.3866 22.9899 72.1474 22.4885 71.7837C21.5714 71.1183 21.5957 70.2276 22.5481 69.6001C23.2627 69.1293 24.0667 68.863 24.8889 68.6733C27.0216 68.1814 29.1989 68.0121 31.3733 67.8315C31.5371 67.8179 31.7192 67.7779 31.9426 67.9878C31.3735 68.1677 30.8308 68.1535 30.3069 68.2212C28.8794 68.4055 27.4625 68.6286 26.1458 69.2524C25.9228 69.358 25.6986 69.4825 25.5139 69.643C25.1477 69.9613 25.1567 70.3575 25.5247 70.6772C25.8632 70.9711 26.2815 71.1237 26.6965 71.2719C28.4805 71.909 30.3465 72.113 32.2141 72.2983C34.3551 72.5108 36.5052 72.4902 38.6477 72.396C41.1351 72.2865 43.6116 72.0192 45.9993 71.2417C46.3067 71.1416 46.614 71.014 46.8889 70.8462C47.6796 70.3635 47.6674 69.8487 46.8596 69.4126C46.3706 69.1486 45.8554 68.9417 45.3128 68.8032C43.8799 68.4374 42.4247 68.2203 40.9514 68.1108C40.789 68.0987 40.6001 68.1367 40.4954 67.9506C40.5195 67.8141 40.6329 67.8439 40.762 67.8208Z" fill="url(#paint1_radial_51_134)"/>
<path d="M53.1315 20.5975C63.8362 20.1946 71.603 22.4313 72.8317 27.0155C74.7468 34.1653 60.0337 44.3206 39.9684 49.6971C19.9029 55.0736 2.08345 53.6351 0.167662 46.4852C-1.07574 41.8432 4.68958 35.9347 14.3786 30.8895C14.148 31.3619 13.9273 31.8313 13.7165 32.2968C6.43416 36.3763 2.2346 40.8383 3.17254 44.3387C4.78034 50.3348 20.8539 51.2374 39.0739 46.3553C57.2939 41.4732 70.7619 32.6547 69.1559 26.6581C68.2076 23.1199 62.2227 21.3554 53.7321 21.5057C53.5332 21.2023 53.3331 20.8995 53.1315 20.5975Z" fill="url(#paint2_linear_51_134)"/>
<path d="M28.8112 19.3627C28.2513 20.3324 27.3255 20.8461 26.7433 20.5099C26.1611 20.1738 26.143 19.1152 26.7029 18.1455C27.2628 17.1757 33.9097 9.07292 33.9097 9.07292C33.9097 9.07292 29.3711 18.3929 28.8112 19.3627Z" fill="#FDFDFD"/>
<defs>
<radialGradient id="paint0_radial_51_134" cx="0" cy="0" r="1" gradientUnits="userSpaceOnUse" gradientTransform="translate(32.8822 24.6617) rotate(83.9667) scale(63.5476 48.1421)">
<stop stop-color="#8B53AE"/>
<stop offset="0.38647" stop-color="#5B2A86"/>
<stop offset="0.95851" stop-color="#190C25"/>
</radialGradient>
<radialGradient id="paint1_radial_51_134" cx="0" cy="0" r="1" gradientUnits="userSpaceOnUse" gradientTransform="translate(36.4792 76.2495) scale(36.4787 8.43019)">
<stop stop-color="#2E083B"/>
<stop offset="0.742587" stop-color="#6A2C91"/>
</radialGradient>
<linearGradient id="paint2_linear_51_134" x1="1.93127" y1="48.0828" x2="73.2273" y2="25.8444" gradientUnits="userSpaceOnUse">
<stop stop-color="#2E083B"/>
<stop offset="0.110577" stop-color="#6A2C91"/>
<stop offset="0.294579" stop-color="white"/>
<stop offset="0.668311" stop-color="white"/>
<stop offset="0.846154" stop-color="#6A2C91"/>
<stop offset="1" stop-color="#2E083B"/>
</linearGradient>
</defs>
</svg>
