<svg width="135" height="21" viewBox="0 0 135 21" fill="none" xmlns="http://www.w3.org/2000/svg">
<path d="M4.33175 5.35501C4.33175 5.9725 4.57818 6.47425 5.07126 6.86022C5.56416 7.24613 6.17284 7.60316 6.89723 7.93124C7.62156 8.25932 8.41637 8.59213 9.28149 8.92982C10.1468 9.26751 10.9415 9.67762 11.6659 10.16C12.3902 10.6425 12.9989 11.2455 13.4918 11.9692C13.9847 12.6929 14.2313 13.6143 14.2313 14.7336C14.2313 15.6212 14.0603 16.4269 13.7182 17.1505C13.3761 17.8742 12.9033 18.4869 12.2997 18.9887C11.696 19.4903 10.9717 19.8811 10.1266 20.1609C9.28149 20.4407 8.35597 20.5806 7.34994 20.5806C4.07021 20.5806 1.71607 19.3938 0.2875 17.0203C0.0863067 16.6922 -0.0093072 16.3642 0.000712855 16.0361C0.0107895 15.7081 0.096327 15.4089 0.257271 15.1388C0.418271 14.8686 0.6446 14.6467 0.936427 14.473C1.22814 14.2994 1.5652 14.2125 1.94743 14.2125C2.53092 14.2125 3.01381 14.3621 3.39615 14.6612C3.77844 14.9603 4.17585 15.2884 4.58831 15.6454C5.00077 16.0024 5.47364 16.3304 6.00686 16.6295C6.54001 16.9287 7.25942 17.0782 8.16479 17.0782C8.92937 17.0782 9.49282 16.9093 9.85496 16.5716C10.2171 16.2339 10.3982 15.8335 10.3982 15.3703C10.3982 14.6371 10.1568 14.034 9.67386 13.5612C9.19097 13.0884 8.58733 12.6686 7.86295 12.3021C7.13862 11.9354 6.3489 11.5784 5.49368 11.231C4.63858 10.8837 3.84887 10.4687 3.12453 9.98631C2.40015 9.50394 1.79651 8.91049 1.31362 8.20616C0.830677 7.50184 0.589235 6.60932 0.589235 5.52864C0.589235 4.56374 0.765349 3.73402 1.11752 3.03931C1.46953 2.3446 1.94239 1.77534 2.53601 1.33148C3.12957 0.887613 3.80862 0.554726 4.5732 0.332879C5.33784 0.11092 6.13253 0 6.95757 0C7.6014 0 8.25027 0.0675042 8.90429 0.202568C9.55814 0.337689 10.1768 0.530645 10.7604 0.781494C11.3439 1.0324 11.8872 1.34114 12.3902 1.70778C12.8933 2.07436 13.3258 2.49895 13.688 2.98137C13.9294 3.30944 14.0652 3.63746 14.0954 3.96554C14.1255 4.29361 14.0753 4.59268 13.9444 4.86286C13.8137 5.13305 13.6225 5.35009 13.371 5.5141C13.1196 5.67817 12.8228 5.76015 12.4807 5.76015C12.2393 5.76015 11.9828 5.70707 11.7111 5.60095C11.4395 5.49477 11.1628 5.31628 10.8811 5.06543C10.358 4.56368 9.74932 4.19224 9.05516 3.95106C8.36101 3.70988 7.69198 3.58924 7.04815 3.58924C6.34392 3.58924 5.71514 3.74363 5.16183 4.05237C4.60846 4.36117 4.33181 4.79531 4.33181 5.35496L4.33175 5.35501ZM30.7102 0.0578884C31.2133 0.0578884 31.6509 0.207428 32.0231 0.506558C32.3953 0.805633 32.5815 1.25431 32.5815 1.85251V18.7859C32.5815 19.3842 32.3953 19.8328 32.0231 20.1319C31.6509 20.4311 31.2133 20.5806 30.7102 20.5806C30.1871 20.5806 29.7444 20.4311 29.3823 20.1319C29.0201 19.8328 28.839 19.3841 28.839 18.7859V12.7362C28.839 12.2924 28.7636 11.9981 28.6127 11.8534C28.4618 11.7086 28.1549 11.6363 27.6921 11.6363H21.7163C21.2535 11.6363 20.9467 11.7086 20.7957 11.8534C20.6449 11.9981 20.5694 12.2924 20.5694 12.7362V18.7859C20.5694 19.3842 20.3884 19.8328 20.0261 20.1319C19.6639 20.4311 19.2213 20.5806 18.6981 20.5806C18.1952 20.5806 17.7574 20.4311 17.3852 20.1319C17.013 19.8328 16.8269 19.3841 16.8269 18.7859V1.85251C16.8269 1.25425 17.013 0.805633 17.3852 0.506558C17.7574 0.207428 18.1952 0.0578884 18.6981 0.0578884C19.2213 0.0578884 19.6639 0.207428 20.0261 0.506558C20.3883 0.805633 20.5694 1.25431 20.5694 1.85251V7.14962C20.5694 7.59343 20.6449 7.8877 20.7957 8.03243C20.9467 8.17716 21.2535 8.24953 21.7163 8.24953H27.6921C28.1549 8.24953 28.4618 8.17716 28.6127 8.03243C28.7636 7.8877 28.839 7.59337 28.839 7.14962V1.85251C28.839 1.25425 29.0201 0.805633 29.3823 0.506558C29.7444 0.207428 30.1871 0.0578884 30.7102 0.0578884ZM49.3622 0.0578884C49.8653 0.0578884 50.3029 0.207428 50.6751 0.506558C51.0474 0.805633 51.2335 1.25431 51.2335 1.85251V13.402C51.2335 14.5984 51.0121 15.6453 50.5694 16.5426C50.1268 17.44 49.5383 18.1877 48.8039 18.7859C48.0695 19.3842 47.2344 19.8328 46.2988 20.1319C45.3631 20.4311 44.4125 20.5806 43.4467 20.5806C42.4608 20.5806 41.5 20.4311 40.5644 20.1319C39.6288 19.8328 38.7937 19.3841 38.0594 18.7859C37.325 18.1877 36.7364 17.44 36.2937 16.5426C35.8511 15.6453 35.6298 14.5984 35.6298 13.402V1.85251C35.6298 1.25425 35.8159 0.805633 36.1882 0.506558C36.5604 0.207428 36.9979 0.0578884 37.501 0.0578884C38.0242 0.0578884 38.4668 0.207428 38.829 0.506558C39.1912 0.805633 39.3723 1.25431 39.3723 1.85251V12.9678C39.3723 13.6432 39.4879 14.2366 39.7193 14.7479C39.9507 15.2594 40.2576 15.6839 40.6398 16.0216C41.0221 16.3592 41.4598 16.6149 41.9527 16.7886C42.4457 16.9623 42.9437 17.0492 43.4467 17.0492C43.9496 17.0492 44.4427 16.9623 44.9256 16.7886C45.4084 16.6149 45.8411 16.3592 46.2233 16.0216C46.6056 15.6839 46.9125 15.2594 47.1439 14.7479C47.3753 14.2366 47.491 13.6432 47.491 12.9678V1.85251C47.491 1.25425 47.6721 0.805633 48.0343 0.506558C48.3964 0.207428 48.8391 0.0578884 49.3622 0.0578884Z" fill="#0061C9"/>
<path d="M134.988 18.6343C135.049 19.2929 134.873 19.7918 134.46 20.1309C134.048 20.4699 133.59 20.6394 133.087 20.6394C132.644 20.6394 132.242 20.5086 131.88 20.2471C131.518 19.9855 131.306 19.5738 131.246 19.0121L130.129 7.91092C130.109 7.83346 130.059 7.78987 129.978 7.7802C129.898 7.77054 129.837 7.81413 129.797 7.91092L126.598 14.9435C126.357 15.4472 126.02 15.825 125.587 16.0769C125.154 16.3288 124.697 16.4547 124.214 16.4547C123.751 16.4547 123.298 16.3288 122.856 16.0769C122.413 15.825 122.071 15.4472 121.829 14.9435L118.63 7.91092C118.59 7.81407 118.53 7.77048 118.449 7.7802C118.369 7.78987 118.318 7.83346 118.298 7.91092L117.181 19.0121C117.121 19.5738 116.91 19.9855 116.548 20.2471C116.185 20.5086 115.783 20.6394 115.34 20.6394C114.817 20.6394 114.355 20.4699 113.952 20.1309C113.55 19.7919 113.379 19.293 113.439 18.6343L115.28 1.83732C115.34 1.23674 115.582 0.78633 116.004 0.486012C116.427 0.185751 116.9 0.0356445 117.423 0.0356445C117.906 0.0356445 118.328 0.132498 118.691 0.326246C119.053 0.519938 119.344 0.858982 119.566 1.34332L123.912 11.0204C123.992 11.1754 124.098 11.2529 124.229 11.2529C124.36 11.2529 124.455 11.1754 124.515 11.0204L128.862 1.34332C129.083 0.858926 129.38 0.519938 129.752 0.326246C130.124 0.132498 130.542 0.0356445 131.004 0.0356445C131.528 0.0356445 132 0.185751 132.423 0.486012C132.845 0.78633 133.087 1.23674 133.147 1.83732L134.988 18.6343Z" fill="#0061C9"/>
<path d="M106.514 18.1444L105.542 15.6312H97.2639L96.2919 18.1957C95.9126 19.1981 95.5901 19.8742 95.3199 20.2239C95.0544 20.5736 94.6134 20.7507 94.0019 20.7507C93.4851 20.7507 93.0251 20.5642 92.6269 20.1913C92.2286 19.8182 92.0295 19.394 92.0295 18.9231C92.0295 18.648 92.0769 18.3635 92.167 18.0745C92.2618 17.7807 92.4135 17.3798 92.6269 16.8575L97.8328 3.85815C97.9846 3.48512 98.1599 3.03748 98.3686 2.51531C98.5772 1.9884 98.8 1.55477 99.0371 1.20973C99.2743 0.864692 99.5823 0.58501 99.9664 0.370513C100.35 0.156017 100.825 0.0488281 101.389 0.0488281C101.967 0.0488281 102.446 0.156073 102.83 0.370513C103.214 0.58501 103.522 0.860052 103.759 1.19576C103.996 1.53141 104.196 1.89517 104.357 2.2821C104.518 2.66915 104.727 3.18668 104.973 3.83017L110.293 16.7503C110.71 17.7341 110.919 18.4474 110.919 18.8951C110.919 19.3566 110.724 19.7856 110.331 20.1726C109.937 20.5597 109.458 20.7507 108.904 20.7507C108.581 20.7507 108.301 20.6949 108.069 20.5783C107.842 20.4664 107.647 20.3126 107.486 20.1167C107.33 19.9208 107.164 19.6178 106.983 19.2168C106.799 18.8111 106.647 18.4521 106.514 18.1443L106.514 18.1444ZM98.3496 12.5819H104.433L101.365 4.32904L98.3496 12.5819Z" fill="#0061C9"/>
<path fill-rule="evenodd" clip-rule="evenodd" d="M73.3429 17.1303L73.4186 16.9997C73.5963 16.5558 73.5761 16.3928 73.8502 15.8516C74.4289 14.7093 75.4631 13.7828 76.7715 13.2763C77.8078 12.8751 78.97 12.956 80.1621 12.956C81.1112 12.956 82.9993 12.8535 83.8361 12.99C83.936 16.7712 82.9159 20.6982 89.0966 20.7186L89.1011 3.63989C88.775 4.1763 88.784 5.01602 87.8527 5.99149C86.0746 7.85384 84.7258 7.81348 82.2815 7.81342C81.4452 7.81342 79.2898 7.9127 78.6079 7.76888C78.5405 5.07139 79.2569 1.85766 76.2781 0.472423C75.2263 -0.0167249 74.5951 0.0703397 73.3523 0.0407715L73.3429 17.1302V17.1303Z" fill="#0061C9"/>
<path fill-rule="evenodd" clip-rule="evenodd" d="M84.1664 6.69413C87.9173 6.65178 88.8376 3.14188 88.3717 0.0543466C86.719 0.0317323 85.4889 0.992672 84.8748 1.89645C83.9134 3.31149 84.1714 4.81041 84.1664 6.69413Z" fill="#2BD9FD"/>
<path fill-rule="evenodd" clip-rule="evenodd" d="M74.1705 20.4561C77.8511 20.4146 78.7541 16.9705 78.297 13.9408C76.6753 13.9187 75.4683 14.8616 74.8657 15.7484C73.9222 17.1368 74.1755 18.6077 74.1705 20.4561Z" fill="#4FBA07"/>
<path fill-rule="evenodd" clip-rule="evenodd" d="M63.8742 17.163H57.9113V12.939C57.9113 12.4892 57.9868 12.1909 58.1377 12.0443C58.2887 11.8976 58.5954 11.8242 59.0583 11.8242H63.6459C64.2696 11.8242 64.7978 11.9563 65.2304 12.2203C66.0742 12.7352 66.5132 13.5273 66.5132 14.4936C66.5132 15.4517 66.0764 16.2478 65.2455 16.7669C64.874 16.999 64.4169 17.1291 63.8741 17.1571V17.163L63.8742 17.163ZM54.1689 17.8148V20.595H63.8977V20.5945C64.9625 20.5849 65.8944 20.4239 66.6943 20.111C67.5193 19.7884 68.2085 19.3581 68.7618 18.8204C69.3151 18.2826 69.7276 17.6715 69.9993 16.9871C70.2708 16.3026 70.4067 15.6084 70.4067 14.9043C70.4067 13.379 69.9791 12.1568 69.1239 11.2377C68.2688 10.3186 66.986 9.74169 65.2757 9.50701C65.2153 9.50701 65.2153 9.47761 65.2757 9.41898C65.8994 9.02787 66.4125 8.53901 66.815 7.95228C67.2174 7.36567 67.4186 6.66157 67.4186 5.84028C67.4186 4.88211 67.2375 4.04113 66.8753 3.31759C66.5131 2.59404 66.0303 1.99268 65.4266 1.51359C64.137 0.489956 62.4526 0.0615234 60.8087 0.0615234C59.1656 0.0615234 57.4507 0.4899 56.1607 1.51359C55.5571 1.99268 55.0742 2.59404 54.712 3.31759C54.3499 4.04113 54.1688 4.88211 54.1688 5.84028V17.8149L54.1689 17.8148ZM60.8088 8.65631C61.7344 8.65631 62.4286 8.3923 62.8914 7.86432C63.3541 7.33627 63.5855 6.75451 63.5855 6.11894C63.5855 5.48336 63.3541 4.90161 62.8914 4.37356C62.4286 3.84563 61.7344 3.58161 60.8088 3.58161C59.7153 3.58161 58.6922 4.0594 58.1679 5.01892C57.9969 5.33185 57.9113 5.7034 57.9113 6.13369V7.54172C57.9113 7.99146 57.9868 8.28974 58.1377 8.43629C58.2887 8.583 58.5954 8.65638 59.0583 8.65638H60.8087L60.8088 8.65631Z" fill="#0061C9"/>
</svg>
